<svg version="1.1" id="Layer_1" xmlns="http://www.w3.org/2000/svg" xmlns:xlink="http://www.w3.org/1999/xlink" x="0px" y="0px"
	 width="100%" viewBox="0 0 394 214" enable-background="new 0 0 394 214" xml:space="preserve">
<path fill="#FDFDFD" opacity="1.000000" stroke="none" 
	d="
M288.000000,215.000000 
	C192.000031,215.000000 96.500053,215.000000 1.000064,215.000000 
	C1.000043,143.666718 1.000043,72.333435 1.000021,1.000112 
	C132.333237,1.000075 263.666473,1.000075 394.999817,1.000037 
	C394.999878,72.333221 394.999878,143.666443 394.999939,214.999832 
	C359.500000,215.000000 324.000000,215.000000 288.000000,215.000000 
M341.268921,77.241692 
	C341.268921,77.241692 341.629333,77.403824 341.885803,78.259361 
	C341.735321,89.106537 341.584808,99.953720 340.788208,110.949791 
	C341.308044,114.946808 344.187286,112.459778 346.669098,112.982063 
	C347.104736,112.930893 347.540344,112.879715 348.467834,112.903389 
	C348.345123,112.200409 348.222412,111.497429 347.957031,109.901894 
	C348.304535,105.597084 348.652039,101.292274 349.755005,97.174843 
	C351.621033,98.227089 353.855560,98.927124 355.272034,100.409058 
	C357.781799,103.034882 359.601013,106.314339 362.068878,108.988319 
	C364.611359,111.743195 367.619995,113.990532 372.062775,112.573997 
	C367.056671,106.777718 362.289185,101.257744 357.528107,95.745163 
	C361.826294,91.030327 366.220764,86.850662 362.973267,80.796974 
	C359.740631,74.771042 353.709564,75.366280 347.285522,75.763878 
	C345.675140,75.857269 344.064789,75.950653 342.037445,75.756256 
	C341.698730,75.737740 341.359985,75.719223 340.604248,75.256546 
	C339.893768,75.299286 339.183319,75.342018 338.472839,75.384758 
	C338.444580,75.622841 338.416351,75.860924 338.388123,76.098999 
	C339.273865,76.371269 340.159637,76.643532 341.268921,77.241692 
M128.030624,134.681549 
	C128.676498,135.251511 129.322357,135.821472 130.052399,137.056000 
	C130.645035,138.541428 131.237671,140.026855 131.830307,141.512283 
	C132.774246,140.885117 133.718201,140.257950 134.662140,139.630783 
	C134.515778,137.401749 134.369400,135.172729 134.126419,132.265274 
	C134.016190,131.824127 133.905960,131.382980 134.689011,130.786285 
	C134.986725,130.838287 135.284454,130.890289 135.516174,131.134857 
	C135.516174,131.134857 135.541367,131.235687 135.541367,131.235687 
	C135.541367,131.235687 135.518448,130.939575 135.722992,130.511200 
	C135.722992,130.511200 135.915909,130.077454 136.494370,130.471848 
	C139.081131,129.016663 141.667908,127.561478 144.991745,126.142601 
	C152.016220,121.722206 159.040695,117.301819 166.731186,112.852974 
	C167.439087,112.265907 168.146988,111.678841 169.615005,111.137184 
	C172.246872,109.603981 174.878738,108.070778 178.584213,105.912132 
	C181.102097,114.289169 183.424042,122.014336 185.903946,130.265045 
	C181.411011,129.968887 179.864151,130.817368 182.355606,134.359909 
	C182.465027,136.205414 182.574432,138.050934 182.682449,139.872955 
	C183.455643,139.660522 184.728470,139.310837 185.974487,139.846252 
	C185.393311,144.108337 185.285751,148.501770 184.146591,152.609100 
	C179.871567,168.023163 170.277206,178.668274 154.288239,183.861237 
	C153.474319,184.124313 152.660385,184.387390 151.009323,184.660675 
	C149.342560,184.830933 147.675812,185.001190 145.170975,185.003418 
	C136.453201,184.598312 128.224564,183.137024 123.277039,174.386505 
	C122.840065,179.480240 125.448242,182.530701 129.021027,184.810608 
	C134.178329,188.101654 139.834671,189.657471 146.855942,188.924896 
	C152.903870,187.609329 158.951797,186.293762 165.655487,184.938416 
	C166.511597,184.323730 167.367706,183.709045 168.931808,183.057510 
	C183.821808,175.354904 195.608719,164.935486 200.137497,147.968307 
	C201.070358,144.473373 202.638016,141.147888 203.862976,137.878128 
	C201.537735,129.769638 199.123016,121.349030 197.103195,112.612167 
	C194.053848,107.084373 191.004501,101.556580 188.589584,95.784790 
	C194.109665,90.354919 199.629761,84.925049 205.770584,79.850319 
	C208.701126,84.214706 211.631668,88.579094 214.783142,93.787636 
	C217.638596,99.617180 217.270493,105.516029 214.784485,112.519867 
	C217.652008,112.704842 220.221100,112.870567 223.511856,113.082840 
	C218.675262,98.185455 226.179871,87.386124 233.149063,76.044762 
	C231.268906,76.583557 229.701218,77.484978 228.816940,78.834290 
	C225.739609,83.529915 222.899094,88.380730 219.619858,92.555252 
	C216.769821,86.869766 213.919769,81.184280 211.255371,74.899757 
	C224.222458,61.248180 238.025452,48.605911 254.164825,38.692307 
	C258.847382,35.816029 263.685974,35.073067 269.283691,36.827038 
	C269.556061,39.655453 269.619507,42.524811 270.163422,45.300007 
	C270.643524,47.749554 271.078186,51.550198 272.573822,52.147362 
	C274.879944,53.068161 278.608734,52.605713 280.783569,51.228756 
	C285.537018,48.219173 287.812805,43.338001 287.067291,37.566628 
	C286.484131,33.051891 284.288422,29.800137 278.703552,29.153242 
	C277.802795,29.127092 276.902008,29.100941 275.174316,28.944826 
	C273.782471,28.980907 272.390625,29.016987 270.235260,28.959566 
	C268.808624,29.275068 267.381958,29.590570 265.298248,29.874342 
	C264.866211,29.944216 264.434174,30.014088 263.216370,29.967422 
	C261.632660,30.386000 259.933319,30.563457 258.482635,31.259373 
	C237.068878,41.532055 220.931824,58.249069 204.271454,75.274750 
	C203.544128,75.307205 202.816788,75.339653 201.664505,75.226189 
	C201.550323,75.322525 201.436127,75.418861 201.321930,75.515198 
	C201.567596,75.609749 201.813248,75.704300 202.352112,76.273926 
	C202.439590,76.438171 202.527084,76.602417 202.098114,77.312538 
	C196.739761,82.257271 191.381409,87.202003 185.801956,91.441986 
	C184.414474,88.235855 183.026993,85.029724 181.414124,81.100471 
	C180.610321,79.070503 179.806503,77.040535 178.503738,73.750465 
	C177.626526,76.318634 177.184143,77.613792 176.357452,79.044136 
	C176.357452,79.044136 176.074966,79.337646 175.414856,78.982132 
	C171.762665,73.323128 172.069748,73.556519 176.787231,69.437141 
	C182.126205,64.775070 187.571594,59.932274 191.640350,54.220398 
	C194.541809,50.147213 196.347946,44.545277 196.511627,39.555641 
	C196.607361,36.637638 192.915359,31.487415 190.234741,30.976702 
	C181.779037,29.365705 174.424438,32.696434 169.070404,39.809021 
	C162.074585,49.102615 159.335190,59.388973 162.283279,70.747765 
	C163.159698,74.124474 162.728317,76.181267 159.504959,77.469643 
	C157.381851,78.318268 155.241974,79.124962 153.105103,79.169228 
	C152.510330,77.707657 154.458801,73.897491 149.180328,75.753159 
	C145.787674,75.845093 142.395004,75.937019 138.182510,75.840881 
	C136.789520,75.907547 135.396515,75.974213 133.106094,75.774010 
	C128.752625,76.535164 123.583542,73.589111 119.323524,78.391769 
	C124.725189,78.391769 129.276840,78.391769 133.931625,79.265839 
	C133.888107,83.487122 133.844589,87.708405 133.242981,92.160202 
	C133.093750,92.728233 132.944519,93.296272 132.070618,93.805496 
	C123.093300,98.858398 115.711372,105.382645 112.555328,115.601120 
	C110.504951,122.239700 112.958870,128.091904 118.739616,130.486038 
	C120.675278,131.287689 122.821266,131.581512 124.979271,132.790558 
	C124.860779,135.851028 126.553764,134.625916 127.995834,133.999268 
	C127.995834,133.999268 127.941696,134.027695 128.030624,134.681549 
M318.914948,79.307304 
	C315.944977,78.138359 312.975006,76.969406 309.796295,75.073029 
	C305.416595,72.444916 301.726837,74.732399 297.245178,76.878052 
	C291.737061,78.129044 288.374603,81.547096 286.871460,87.775017 
	C286.854218,88.429108 286.971069,89.120834 286.799622,89.731644 
	C284.145233,99.188301 287.112488,106.248428 296.376831,111.892265 
	C300.566681,112.222351 304.756531,112.552429 309.335724,113.427010 
	C310.892609,112.717957 312.449463,112.008896 314.687592,111.070030 
	C326.397766,105.879028 328.340057,88.650032 320.872070,81.297005 
	C320.305328,80.840881 319.738617,80.384766 318.914948,79.307304 
M88.848900,106.915619 
	C88.959335,108.854233 89.069763,110.792847 89.205200,113.170418 
	C91.985847,112.959396 94.437958,112.773315 95.721207,112.675934 
	C93.605766,99.590012 91.621864,87.317764 89.388199,73.500504 
	C84.177567,84.234840 79.623764,93.616058 74.658798,103.844299 
	C69.569237,93.465103 64.965775,84.077217 60.362309,74.689331 
	C60.047489,74.767746 59.732674,74.846153 59.417854,74.924568 
	C57.335045,87.482674 55.252235,100.040779 53.147572,112.730652 
	C53.997299,112.730652 55.848469,112.730652 57.343807,112.730652 
	C58.210529,104.894455 59.065731,97.162422 59.920933,89.430389 
	C60.325718,89.410248 60.730503,89.390099 61.135288,89.369957 
	C64.983963,97.053436 68.832642,104.736908 73.128746,113.313644 
	C77.558495,104.234863 81.392746,96.376549 85.226997,88.518242 
	C85.607780,88.656921 85.988556,88.795609 86.369339,88.934296 
	C87.130913,94.634995 87.892494,100.335701 88.848900,106.915619 
M29.048756,81.026039 
	C28.433422,94.611771 30.557491,108.297432 27.328964,122.285233 
	C33.933453,118.421730 35.386631,112.466415 35.499447,106.033134 
	C35.639164,98.066269 35.324970,90.091576 35.455814,82.124344 
	C35.493179,79.849159 36.394291,77.588165 36.896828,75.331886 
	C33.811520,75.331886 30.026123,75.331886 26.708050,75.331886 
	C27.420387,76.813133 28.225071,78.486404 29.048756,81.026039 
M271.004578,112.812050 
	C271.773438,111.887474 272.542328,110.962898 273.311218,110.038322 
	C271.160828,109.656242 269.910309,110.064377 268.627747,110.291725 
	C261.537079,111.548630 259.116821,109.555237 259.099091,102.459503 
	C259.081665,95.481964 258.934723,88.498474 259.190491,81.530281 
	C259.269989,79.363792 260.477600,77.238708 261.034241,75.512001 
	C258.301971,75.512001 254.518707,75.512001 252.071747,75.512001 
	C255.299469,87.437248 253.024719,99.807983 253.287781,112.840012 
	C258.882050,112.840012 264.505341,112.840012 271.004578,112.812050 
M80.726807,140.535736 
	C81.723450,139.445709 83.654381,138.236145 83.533226,137.289124 
	C83.227859,134.902222 82.431221,132.269302 80.934799,130.488449 
	C80.293381,129.725128 76.424576,130.205643 75.785515,131.225708 
	C74.595329,133.125504 73.885788,136.097641 74.541420,138.114670 
	C74.987343,139.486496 78.098267,139.992050 80.726807,140.535736 
M263.514862,133.957825 
	C264.819550,134.009781 266.137482,133.987366 267.411072,134.214005 
	C267.559296,134.240402 267.533936,136.307983 267.468414,136.315094 
	C265.183289,136.562561 262.883698,136.676178 260.586151,136.808777 
	C260.330688,137.144119 260.075195,137.479446 259.819733,137.814789 
	C262.007904,138.876953 264.468384,141.105850 266.308411,140.676392 
	C268.185577,140.238266 270.373260,137.323959 270.681885,135.236099 
	C270.908661,133.702026 268.678253,130.888519 266.919617,130.169495 
	C263.346649,128.708633 261.617950,131.419266 260.038788,135.018204 
	C261.476776,134.719879 262.213684,134.567001 263.514862,133.957825 
M171.410995,143.951187 
	C169.911255,139.645020 168.411499,135.338867 166.911758,131.032700 
	C166.495468,131.186844 166.079193,131.340988 165.662903,131.495117 
	C166.858398,136.823792 168.053894,142.152451 169.337402,147.873367 
	C169.962524,146.788361 170.569824,145.734283 171.410995,143.951187 
M250.798782,112.114082 
	C250.892624,112.356857 250.986465,112.599625 251.080292,112.842384 
	C251.171234,112.600449 251.262192,112.358521 250.798782,112.114082 
z"/>
<path fill="#9E9D9C" opacity="1.000000" stroke="none" 
	d="
M182.888489,133.914185 
	C179.864151,130.817368 181.411011,129.968887 185.903946,130.265045 
	C183.424042,122.014336 181.102097,114.289169 178.584213,105.912132 
	C174.878738,108.070778 172.246872,109.603981 168.968689,110.931671 
	C168.528427,109.513527 168.734467,108.300888 169.255173,106.939323 
	C171.361450,104.563293 173.153076,102.336197 175.302826,100.019608 
	C176.145569,99.846687 176.630203,99.763252 177.471924,99.771530 
	C179.017822,99.627411 180.206619,99.391563 181.550064,99.220543 
	C181.704697,99.285378 182.038864,99.257370 182.307404,99.459045 
	C184.409775,103.847450 186.243607,108.034195 188.387314,112.928421 
	C190.789230,112.928421 193.748764,112.928421 196.708282,112.928421 
	C199.123016,121.349030 201.537735,129.769638 203.862976,137.878128 
	C202.638016,141.147888 201.070358,144.473373 200.137497,147.968307 
	C195.608719,164.935486 183.821808,175.354904 168.206177,183.053223 
	C166.653625,183.692032 165.826675,184.335114 164.999725,184.978180 
	C158.951797,186.293762 152.903870,187.609329 146.430359,188.489594 
	C146.006210,187.093353 146.007629,186.132401 146.009048,185.171463 
	C147.675812,185.001190 149.342560,184.830933 151.615509,184.964630 
	C153.128769,184.793625 154.035828,184.318665 154.942902,183.843689 
	C170.277206,178.668274 179.871567,168.023163 184.146591,152.609100 
	C185.285751,148.501770 185.393311,144.108337 185.922333,139.103729 
	C185.432571,136.377441 184.994965,134.393677 184.565170,132.445389 
	C184.016525,132.926010 183.452515,133.420090 182.888489,133.914185 
z"/>
<path fill="#A0A0A0" opacity="1.000000" stroke="none" 
	d="
M153.109604,79.950417 
	C155.241974,79.124962 157.381851,78.318268 159.504959,77.469643 
	C162.728317,76.181267 163.159698,74.124474 162.283279,70.747765 
	C159.335190,59.388973 162.074585,49.102615 169.070404,39.809021 
	C174.424438,32.696434 181.779037,29.365705 190.234741,30.976702 
	C192.915359,31.487415 196.607361,36.637638 196.511627,39.555641 
	C196.347946,44.545277 194.541809,50.147213 191.640350,54.220398 
	C187.571594,59.932274 182.126205,64.775070 176.787231,69.437141 
	C172.069748,73.556519 171.762665,73.323128 175.753998,79.435448 
	C176.051636,80.255920 176.010147,80.623085 175.763626,81.205048 
	C175.048157,82.274467 174.537720,83.129082 173.765991,84.174576 
	C173.363892,84.982811 173.223068,85.600166 173.080750,86.421524 
	C173.079269,86.625526 172.947464,87.011650 172.709991,87.186089 
	C172.319702,87.917885 172.166870,88.475250 171.995377,89.278557 
	C171.976700,89.524506 171.824707,89.993820 171.467407,90.003189 
	C170.631897,90.051704 170.153671,90.090843 169.436218,89.887573 
	C167.550568,86.082581 165.904160,82.519989 163.901062,78.185577 
	C156.364227,83.565140 149.154419,88.711266 141.808441,93.554291 
	C140.943298,91.838104 140.214325,90.425034 139.391968,88.662926 
	C139.382950,87.847984 139.467300,87.382088 139.893723,86.988754 
	C143.648621,85.603928 147.061432,84.146530 150.858551,82.738686 
	C151.865112,81.842300 152.487350,80.896355 153.109604,79.950417 
M172.827606,47.526596 
	C169.839371,54.562359 168.689224,61.666420 171.807205,69.864120 
	C175.047043,67.242142 177.892746,65.278526 180.330276,62.897118 
	C185.716385,57.635056 190.628494,51.976727 192.443756,44.360752 
	C193.988251,37.880653 191.082565,34.719051 184.598236,35.994743 
	C178.574814,37.179764 176.054977,42.262665 172.827606,47.526596 
z"/>
<path fill="#FBFAF7" opacity="1.000000" stroke="none" 
	d="
M314.006348,111.299843 
	C312.449463,112.008896 310.892609,112.717957 308.977173,112.802780 
	C304.770142,110.729485 300.921722,109.280434 296.960754,107.548462 
	C295.950409,106.182709 295.052582,105.099854 294.139954,103.619614 
	C293.409973,97.815491 292.694763,92.408752 292.081116,86.648582 
	C292.201691,85.561256 292.220734,84.827377 292.555817,83.969063 
	C294.601318,81.935654 296.358093,80.049927 298.027100,78.089531 
	C298.246613,77.831711 298.017548,77.192017 297.996216,76.729187 
	C301.726837,74.732399 305.416595,72.444916 309.494751,75.492538 
	C307.914520,75.994873 306.635834,76.077690 306.128754,76.110527 
	C309.235535,78.349754 312.525116,80.720734 315.936859,83.432991 
	C317.340088,88.080734 318.621124,92.387199 319.628967,96.812172 
	C319.243683,97.285561 319.131531,97.640427 318.922119,98.338249 
	C318.751617,99.390167 318.678406,100.099121 318.352844,101.054276 
	C316.188843,104.644150 314.277191,107.987846 312.527130,111.048920 
	C312.121063,110.980042 313.063690,111.139938 314.006348,111.299843 
z"/>
<path fill="#9E9D9C" opacity="1.000000" stroke="none" 
	d="
M166.065170,112.881424 
	C159.040695,117.301819 152.016220,121.722206 144.210556,126.095566 
	C140.234390,126.103836 137.255188,126.561501 135.915909,130.077454 
	C135.915909,130.077454 135.722992,130.511200 135.635895,130.740463 
	C135.548813,130.969727 135.582184,130.942291 135.582184,130.942291 
	C135.284454,130.890289 134.986725,130.838287 134.087524,130.873444 
	C133.486053,130.960617 133.174957,130.946671 132.828461,130.913101 
	C132.250687,130.899109 132.019424,130.918701 131.620636,130.951309 
	C131.453094,130.964340 131.117020,130.960098 130.717926,130.960693 
	C129.255432,130.975388 128.192001,130.989502 126.797867,131.019867 
	C125.935135,131.393219 125.403122,131.750336 124.871109,132.107468 
	C122.821266,131.581512 120.675278,131.287689 118.739616,130.486038 
	C112.958870,128.091904 110.504951,122.239700 112.555328,115.601120 
	C115.711372,105.382645 123.093300,98.858398 132.711090,93.880829 
	C133.537552,93.983383 133.723511,94.010605 133.953186,94.460358 
	C133.974213,96.581291 133.951538,98.279686 133.660812,100.148819 
	C133.289108,100.932335 133.185440,101.545113 132.955048,102.476944 
	C131.550339,105.262978 130.225311,107.707001 129.006577,110.202919 
	C127.558350,113.168777 125.892769,115.952812 128.827164,119.275948 
	C131.851776,122.701256 135.719604,124.161957 139.501236,122.651947 
	C146.318420,119.929832 152.727142,116.184761 159.671295,112.807716 
	C162.045792,112.792786 164.055481,112.837097 166.065170,112.881424 
z"/>
<path fill="#151515" opacity="1.000000" stroke="none" 
	d="
M88.751480,106.476013 
	C87.892494,100.335701 87.130913,94.634995 86.369339,88.934296 
	C85.988556,88.795609 85.607780,88.656921 85.226997,88.518242 
	C81.392746,96.376549 77.558495,104.234863 73.128746,113.313644 
	C68.832642,104.736908 64.983963,97.053436 61.135288,89.369957 
	C60.730503,89.390099 60.325718,89.410248 59.920933,89.430389 
	C59.065731,97.162422 58.210529,104.894455 57.343807,112.730652 
	C55.848469,112.730652 53.997299,112.730652 53.147572,112.730652 
	C55.252235,100.040779 57.335045,87.482674 59.417854,74.924568 
	C59.732674,74.846153 60.047489,74.767746 60.362309,74.689331 
	C64.965775,84.077217 69.569237,93.465103 74.658798,103.844299 
	C79.623764,93.616058 84.177567,84.234840 89.388199,73.500504 
	C91.621864,87.317764 93.605766,99.590012 95.721207,112.675934 
	C94.437958,112.773315 91.985847,112.959396 89.205200,113.170418 
	C89.069763,110.792847 88.959335,108.854233 88.751480,106.476013 
z"/>
<path fill="#A2A2A1" opacity="1.000000" stroke="none" 
	d="
M204.994339,75.201912 
	C220.931824,58.249069 237.068878,41.532055 258.482635,31.259373 
	C259.933319,30.563457 261.632660,30.386000 263.617401,30.391396 
	C265.659515,32.611347 267.300598,34.407322 268.941681,36.203293 
	C263.685974,35.073067 258.847382,35.816029 254.164825,38.692307 
	C238.025452,48.605911 224.222458,61.248180 210.790771,75.356613 
	C209.520645,75.759872 208.715103,75.706276 207.823807,75.554657 
	C207.474289,75.327095 207.257996,75.393593 206.805786,75.726280 
	C206.013031,75.598251 205.503693,75.400078 204.994339,75.201912 
z"/>
<path fill="#A0A0A0" opacity="1.000000" stroke="none" 
	d="
M269.112671,36.515167 
	C267.300598,34.407322 265.659515,32.611347 264.010284,30.449665 
	C264.434174,30.014088 264.866211,29.944216 265.857849,30.175152 
	C267.944550,30.001661 269.471649,29.527361 270.998779,29.053064 
	C272.390625,29.016987 273.782471,28.980907 275.645935,29.343227 
	C277.131805,29.714514 278.146027,29.687403 279.160278,29.660292 
	C284.288422,29.800137 286.484131,33.051891 287.067291,37.566628 
	C287.812805,43.338001 285.537018,48.219173 280.783569,51.228756 
	C278.608734,52.605713 274.879944,53.068161 272.573822,52.147362 
	C271.078186,51.550198 270.643524,47.749554 270.163422,45.300007 
	C269.619507,42.524811 269.556061,39.655453 269.112671,36.515167 
z"/>
<path fill="#1A1A1A" opacity="1.000000" stroke="none" 
	d="
M29.039257,80.592857 
	C28.225071,78.486404 27.420387,76.813133 26.708050,75.331886 
	C30.026123,75.331886 33.811520,75.331886 36.896828,75.331886 
	C36.394291,77.588165 35.493179,79.849159 35.455814,82.124344 
	C35.324970,90.091576 35.639164,98.066269 35.499447,106.033134 
	C35.386631,112.466415 33.933453,118.421730 27.328964,122.285233 
	C30.557491,108.297432 28.433422,94.611771 29.039257,80.592857 
z"/>
<path fill="#9F7B1C" opacity="1.000000" stroke="none" 
	d="
M347.994324,75.887306 
	C353.709564,75.366280 359.740631,74.771042 362.973267,80.796974 
	C366.220764,86.850662 361.826294,91.030327 357.528107,95.745163 
	C362.289185,101.257744 367.056671,106.777718 372.062775,112.573997 
	C367.619995,113.990532 364.611359,111.743195 362.068878,108.988319 
	C359.601013,106.314339 357.781799,103.034882 355.272034,100.409058 
	C353.855560,98.927124 351.621033,98.227089 349.376282,96.793442 
	C348.995178,96.028435 348.992767,95.644829 349.411835,95.245499 
	C355.635254,95.387566 358.255096,93.239525 358.797241,87.880058 
	C359.441498,81.511284 355.236694,77.366760 348.144287,77.051460 
	C348.054779,76.405548 348.024567,76.146431 347.994324,75.887306 
z"/>
<path fill="#9B7714" opacity="1.000000" stroke="none" 
	d="
M270.566589,112.826035 
	C264.505341,112.840012 258.882050,112.840012 253.287781,112.840012 
	C253.024719,99.807983 255.299469,87.437248 252.071747,75.512001 
	C254.518707,75.512001 258.301971,75.512001 261.034241,75.512001 
	C260.477600,77.238708 259.269989,79.363792 259.190491,81.530281 
	C258.934723,88.498474 259.081665,95.481964 259.099091,102.459503 
	C259.116821,109.555237 261.537079,111.548630 268.627747,110.291725 
	C269.910309,110.064377 271.160828,109.656242 273.311218,110.038322 
	C272.542328,110.962898 271.773438,111.887474 270.566589,112.826035 
M255.005493,92.506020 
	C255.498062,98.254143 253.987228,104.209785 256.443176,109.707558 
	C256.443176,99.371979 256.443176,89.036407 256.443176,78.700829 
	C255.963943,78.713753 255.484726,78.726677 255.005493,78.739594 
	C255.005493,82.997154 255.005493,87.254707 255.005493,92.506020 
z"/>
<path fill="#9E7A1A" opacity="1.000000" stroke="none" 
	d="
M347.639923,75.825592 
	C348.024567,76.146431 348.054779,76.405548 347.993469,77.468811 
	C348.264771,83.935715 348.627563,89.598473 348.990356,95.261223 
	C348.992767,95.644829 348.995178,96.028435 348.998566,96.699753 
	C348.652039,101.292274 348.304535,105.597084 347.991272,110.686050 
	C348.009003,111.922981 347.992493,112.375755 347.975983,112.828537 
	C347.540344,112.879715 347.104736,112.930893 346.238831,112.544655 
	C344.350494,111.671799 342.892395,111.236351 341.434296,110.800903 
	C341.584808,99.953720 341.735321,89.106537 341.995392,77.510605 
	C342.221466,76.522583 342.337921,76.283310 342.454407,76.044044 
	C344.064789,75.950653 345.675140,75.857269 347.639923,75.825592 
z"/>
<path fill="#9D7B1D" opacity="1.000000" stroke="none" 
	d="
M175.968658,80.990242 
	C176.010147,80.623085 176.051636,80.255920 176.084045,79.613205 
	C176.074966,79.337646 176.357452,79.044136 176.930023,79.052704 
	C178.881577,79.982040 180.260544,80.902817 181.639511,81.823593 
	C183.026993,85.029724 184.414474,88.235855 185.956924,92.107834 
	C186.726303,93.858711 187.340729,94.943748 187.955154,96.028786 
	C191.004501,101.556580 194.053848,107.084373 196.905731,112.770294 
	C193.748764,112.928421 190.789230,112.928421 188.387314,112.928421 
	C186.243607,108.034195 184.409775,103.847450 182.277740,99.079193 
	C181.954865,98.246300 181.930206,97.994911 181.951584,97.547897 
	C181.997635,97.352280 182.148666,96.979813 182.426575,96.942245 
	C182.439453,95.621948 182.174438,94.339226 181.906250,93.048172 
	C181.903076,93.039841 181.886856,93.064095 181.920990,92.718285 
	C181.474075,91.205803 180.993042,90.039139 180.511993,88.872467 
	C180.339874,89.252342 180.167755,89.632210 179.748001,89.782135 
	C178.995117,88.045227 178.489838,86.538277 177.959137,84.694962 
	C177.278687,83.235817 176.623672,82.113029 175.968658,80.990242 
z"/>
<path fill="#9A7410" opacity="1.000000" stroke="none" 
	d="
M133.928848,99.978081 
	C133.951538,98.279686 133.974213,96.581291 134.197784,94.301865 
	C134.199448,93.123787 134.000259,92.526733 133.801056,91.929688 
	C133.844589,87.708405 133.888107,83.487122 133.928024,78.438408 
	C133.950790,77.087616 133.977158,76.564247 134.003525,76.040886 
	C135.396515,75.974213 136.789520,75.907547 138.690781,76.184906 
	C139.462784,76.996178 139.726532,77.463417 139.781464,78.265800 
	C139.565643,81.372688 139.558640,84.144432 139.551636,86.916183 
	C139.467300,87.382088 139.382950,87.847984 139.294586,89.059753 
	C139.454544,91.850418 139.618546,93.895210 139.732162,96.407257 
	C139.739243,101.288162 139.796707,105.701813 139.646439,110.248856 
	C139.295776,110.844521 139.152863,111.306778 138.591095,111.886154 
	C136.467209,112.003273 134.762177,112.003273 133.828827,112.003273 
	C133.828827,108.205833 133.828827,105.140549 134.080765,101.935486 
	C134.198090,101.189835 134.063477,100.583954 133.928848,99.978081 
z"/>
<path fill="#9A7410" opacity="1.000000" stroke="none" 
	d="
M219.968521,93.172531 
	C222.899094,88.380730 225.739609,83.529915 228.816940,78.834290 
	C229.701218,77.484978 231.268906,76.583557 233.149063,76.044762 
	C226.179871,87.386124 218.675262,98.185455 223.511856,113.082840 
	C220.221100,112.870567 217.652008,112.704842 214.784485,112.519867 
	C217.270493,105.516029 217.638596,99.617180 215.070572,93.412521 
	C220.987625,97.409904 218.311218,103.792175 219.968521,109.314049 
	C219.968521,103.933548 219.968521,98.553040 219.968521,93.172531 
z"/>
<path fill="#A07D1E" opacity="1.000000" stroke="none" 
	d="
M219.794189,92.863892 
	C219.968521,98.553040 219.968521,103.933548 219.968521,109.314049 
	C218.311218,103.792175 220.987625,97.409904 214.960114,92.990448 
	C211.631668,88.579094 208.701126,84.214706 205.422424,79.396332 
	C204.254379,78.217117 203.434479,77.491882 202.614563,76.766647 
	C202.527084,76.602417 202.439590,76.438171 202.282349,75.934929 
	C202.212570,75.595932 202.089462,75.372116 202.089462,75.372116 
	C202.816788,75.339653 203.544128,75.307205 204.632904,75.238327 
	C205.503693,75.400078 206.013031,75.598251 207.010925,75.785873 
	C207.499451,75.775330 207.909576,75.652679 207.909576,75.652679 
	C208.715103,75.706276 209.520645,75.759872 210.697952,75.656128 
	C213.919769,81.184280 216.769821,86.869766 219.794189,92.863892 
z"/>
<path fill="#9A7515" opacity="1.000000" stroke="none" 
	d="
M175.763626,81.205048 
	C176.623672,82.113029 177.278687,83.235817 177.597992,84.708206 
	C175.413330,89.090912 173.564346,93.124016 171.446533,97.743523 
	C175.700562,97.743523 178.803055,97.743523 181.905533,97.743523 
	C181.930206,97.994911 181.954865,98.246300 182.009201,98.877525 
	C182.038864,99.257370 181.704697,99.285378 181.162994,99.175980 
	C179.452469,99.270996 178.283646,99.475403 177.114838,99.679810 
	C176.630203,99.763252 176.145569,99.846687 174.911743,99.928589 
	C168.591110,99.520660 169.338638,103.722183 168.940506,107.088257 
	C168.734467,108.300888 168.528427,109.513527 168.588654,110.908966 
	C168.146988,111.678841 167.439087,112.265907 166.398178,112.867195 
	C164.055481,112.837097 162.045792,112.792786 159.856506,112.550201 
	C161.125839,111.319382 163.295685,110.597710 163.898331,109.200218 
	C166.448532,103.286354 168.532654,97.171494 171.063599,91.055740 
	C171.501602,90.652184 171.663147,90.322998 171.824707,89.993820 
	C171.824707,89.993820 171.976700,89.524506 172.231232,89.101425 
	C172.639664,88.122780 172.793564,87.567215 172.947464,87.011650 
	C172.947464,87.011650 173.079269,86.625526 173.315735,86.206558 
	C173.710571,85.186295 173.868927,84.584991 174.027283,83.983696 
	C174.537720,83.129082 175.048157,82.274467 175.763626,81.205048 
z"/>
<path fill="#9F7C1A" opacity="1.000000" stroke="none" 
	d="
M292.239746,84.093483 
	C292.220734,84.827377 292.201691,85.561256 291.716614,86.711967 
	C287.991272,92.192818 289.412445,100.457016 294.154755,104.016998 
	C295.052582,105.099854 295.950409,106.182709 296.816162,107.885788 
	C296.487854,109.429199 296.191528,110.352379 295.895203,111.275551 
	C287.112488,106.248428 284.145233,99.188301 286.799622,89.731644 
	C286.971069,89.120834 286.854218,88.429108 287.289185,87.333038 
	C289.217834,85.958542 290.728790,85.026009 292.239746,84.093483 
z"/>
<path fill="#A1A1A1" opacity="1.000000" stroke="none" 
	d="
M145.590012,185.087433 
	C146.007629,186.132401 146.006210,187.093353 146.008545,188.412613 
	C139.834671,189.657471 134.178329,188.101654 129.021027,184.810608 
	C125.448242,182.530701 122.840065,179.480240 123.277039,174.386505 
	C128.224564,183.137024 136.453201,184.598312 145.590012,185.087433 
z"/>
<path fill="#A6A5A1" opacity="1.000000" stroke="none" 
	d="
M202.356339,77.039597 
	C203.434479,77.491882 204.254379,78.217117 205.112061,79.218765 
	C199.629761,84.925049 194.109665,90.354919 188.272369,95.906784 
	C187.340729,94.943748 186.726303,93.858711 186.067474,92.460205 
	C191.381409,87.202003 196.739761,82.257271 202.356339,77.039597 
z"/>
<path fill="#9B7714" opacity="1.000000" stroke="none" 
	d="
M314.346985,111.184937 
	C313.063690,111.139938 312.121063,110.980042 312.527130,111.048920 
	C314.277191,107.987846 316.188843,104.644150 318.636414,101.193726 
	C319.800812,101.320259 320.954407,101.804382 320.980438,101.749901 
	C321.545593,100.566696 321.879333,99.270340 322.466766,98.100838 
	C325.346161,92.368103 321.018768,87.288040 321.056427,81.821739 
	C328.340057,88.650032 326.397766,105.879028 314.346985,111.184937 
z"/>
<path fill="#E0E0E0" opacity="1.000000" stroke="none" 
	d="
M80.372139,140.710358 
	C78.098267,139.992050 74.987343,139.486496 74.541420,138.114670 
	C73.885788,136.097641 74.595329,133.125504 75.785515,131.225708 
	C76.424576,130.205643 80.293381,129.725128 80.934799,130.488449 
	C82.431221,132.269302 83.227859,134.902222 83.533226,137.289124 
	C83.654381,138.236145 81.723450,139.445709 80.372139,140.710358 
z"/>
<path fill="#9F7C1A" opacity="1.000000" stroke="none" 
	d="
M320.964233,81.559372 
	C321.018768,87.288040 325.346161,92.368103 322.466766,98.100838 
	C321.879333,99.270340 321.545593,100.566696 320.980438,101.749901 
	C320.954407,101.804382 319.800812,101.320259 318.888794,100.947540 
	C318.678406,100.099121 318.751617,99.390167 319.152222,98.186768 
	C319.620453,97.359436 319.761292,97.026550 319.902161,96.693665 
	C318.621124,92.387199 317.340088,88.080734 316.223022,83.257675 
	C317.315338,81.803604 318.243622,80.866135 319.171875,79.928650 
	C319.738617,80.384766 320.305328,80.840881 320.964233,81.559372 
z"/>
<path fill="#E4E4E4" opacity="1.000000" stroke="none" 
	d="
M263.232727,134.185974 
	C262.213684,134.567001 261.476776,134.719879 260.038788,135.018204 
	C261.617950,131.419266 263.346649,128.708633 266.919617,130.169495 
	C268.678253,130.888519 270.908661,133.702026 270.681885,135.236099 
	C270.373260,137.323959 268.185577,140.238266 266.308411,140.676392 
	C264.468384,141.105850 262.007904,138.876953 259.819733,137.814789 
	C260.075195,137.479446 260.330688,137.144119 260.586151,136.808777 
	C262.883698,136.676178 265.183289,136.562561 267.468414,136.315094 
	C267.533936,136.307983 267.559296,134.240402 267.411072,134.214005 
	C266.137482,133.987366 264.819550,134.009781 263.232727,134.185974 
z"/>
<path fill="#A98A32" opacity="1.000000" stroke="none" 
	d="
M171.294067,144.315704 
	C170.569824,145.734283 169.962524,146.788361 169.337402,147.873367 
	C168.053894,142.152451 166.858398,136.823792 165.662903,131.495117 
	C166.079193,131.340988 166.495468,131.186844 166.911758,131.032700 
	C168.411499,135.338867 169.911255,139.645020 171.294067,144.315704 
z"/>
<path fill="#9B7714" opacity="1.000000" stroke="none" 
	d="
M319.043396,79.617981 
	C318.243622,80.866135 317.315338,81.803604 316.100891,82.916397 
	C312.525116,80.720734 309.235535,78.349754 306.128754,76.110527 
	C306.635834,76.077690 307.914520,75.994873 309.599121,75.856262 
	C312.975006,76.969406 315.944977,78.138359 319.043396,79.617981 
z"/>
<path fill="#E4E4E4" opacity="1.000000" stroke="none" 
	d="
M127.128586,131.003616 
	C128.192001,130.989502 129.255432,130.975388 130.696838,131.275085 
	C131.170685,132.142776 131.266541,132.696655 131.362396,133.250549 
	C131.504333,133.238632 131.646255,133.226715 131.788177,133.214798 
	C131.788177,132.455963 131.788177,131.697113 131.788177,130.938278 
	C132.019424,130.918701 132.250687,130.899109 132.753632,131.230530 
	C133.077377,132.168518 133.129456,132.755478 133.181519,133.342453 
	C133.528687,133.209534 133.875854,133.076614 134.223022,132.943695 
	C134.369400,135.172729 134.515778,137.401749 134.662140,139.630783 
	C133.718201,140.257950 132.774246,140.885117 131.830307,141.512283 
	C131.237671,140.026855 130.645035,138.541428 130.212952,136.557816 
	C130.532608,135.987823 130.691742,135.916000 131.073456,135.845886 
	C131.134796,135.641937 130.973541,135.436279 130.509918,135.051514 
	C129.452271,134.590866 128.696976,134.309280 127.941696,134.027695 
	C127.941696,134.027695 127.995834,133.999268 128.196167,133.741608 
	C127.973846,132.657166 127.551216,131.830383 127.128586,131.003616 
z"/>
<path fill="#9A7410" opacity="1.000000" stroke="none" 
	d="
M292.555817,83.969055 
	C290.728790,85.026009 289.217834,85.958542 287.365723,86.944359 
	C288.374603,81.547096 291.737061,78.129044 297.620697,76.803619 
	C298.017548,77.192017 298.246613,77.831711 298.027100,78.089531 
	C296.358093,80.049927 294.601318,81.935654 292.555817,83.969055 
z"/>
<path fill="#A17D24" opacity="1.000000" stroke="none" 
	d="
M133.554810,75.907448 
	C133.977158,76.564247 133.950790,77.087616 133.876465,78.001373 
	C129.276840,78.391769 124.725189,78.391769 119.323524,78.391769 
	C123.583542,73.589111 128.752625,76.535164 133.554810,75.907448 
z"/>
<path fill="#9A7410" opacity="1.000000" stroke="none" 
	d="
M296.136017,111.583908 
	C296.191528,110.352379 296.487854,109.429199 296.928711,108.168701 
	C300.921722,109.280434 304.770142,110.729485 308.782471,112.530525 
	C304.756531,112.552429 300.566681,112.222351 296.136017,111.583908 
z"/>
<path fill="#5C5C5C" opacity="1.000000" stroke="none" 
	d="
M182.622055,134.137054 
	C183.452515,133.420090 184.016525,132.926010 184.565170,132.445389 
	C184.994965,134.393677 185.432571,136.377441 185.935730,138.661163 
	C184.728470,139.310837 183.455643,139.660522 182.682449,139.872955 
	C182.574432,138.050934 182.465027,136.205414 182.622055,134.137054 
z"/>
<path fill="#A17D24" opacity="1.000000" stroke="none" 
	d="
M139.990265,77.930664 
	C139.726532,77.463417 139.462784,76.996178 139.100708,76.278946 
	C142.395004,75.937019 145.787674,75.845093 149.608643,76.273643 
	C150.078476,77.382538 150.120026,77.970947 149.690247,78.520073 
	C146.142700,78.297417 143.066483,78.114044 139.990265,77.930664 
z"/>
<path fill="#A4A29E" opacity="1.000000" stroke="none" 
	d="
M150.161560,78.559357 
	C150.120026,77.970947 150.078476,77.382538 150.067673,76.353737 
	C154.458801,73.897491 152.510330,77.707657 153.107361,79.559822 
	C152.487350,80.896355 151.865112,81.842300 151.021210,82.513657 
	C150.586884,81.012505 150.374222,79.785927 150.161560,78.559357 
z"/>
<path fill="#A2A2A1" opacity="1.000000" stroke="none" 
	d="
M136.205139,130.274658 
	C137.255188,126.561501 140.234390,126.103836 143.842026,126.077408 
	C141.667908,127.561478 139.081131,129.016663 136.205139,130.274658 
z"/>
<path fill="#9A7515" opacity="1.000000" stroke="none" 
	d="
M181.526825,81.462036 
	C180.260544,80.902817 178.881577,79.982040 177.122192,78.985107 
	C177.184143,77.613792 177.626526,76.318634 178.503738,73.750465 
	C179.806503,77.040535 180.610321,79.070503 181.526825,81.462036 
z"/>
<path fill="#A98A32" opacity="1.000000" stroke="none" 
	d="
M341.111267,110.875351 
	C342.892395,111.236351 344.350494,111.671799 345.913544,112.480103 
	C344.187286,112.459778 341.308044,114.946808 341.111267,110.875351 
z"/>
<path fill="#5C5C5C" opacity="1.000000" stroke="none" 
	d="
M126.797867,131.019867 
	C127.551216,131.830383 127.973846,132.657166 128.183380,133.769379 
	C126.553764,134.625916 124.860779,135.851028 124.925186,132.449005 
	C125.403122,131.750336 125.935135,131.393219 126.797867,131.019867 
z"/>
<path fill="#A2A2A1" opacity="1.000000" stroke="none" 
	d="
M270.617004,29.006313 
	C269.471649,29.527361 267.944550,30.001661 266.186371,30.191017 
	C267.381958,29.590570 268.808624,29.275068 270.617004,29.006313 
z"/>
<path fill="#A1A1A1" opacity="1.000000" stroke="none" 
	d="
M154.615570,183.852463 
	C154.035828,184.318665 153.128769,184.793625 152.034088,184.959534 
	C152.660385,184.387390 153.474319,184.124313 154.615570,183.852463 
z"/>
<path fill="#A2A2A1" opacity="1.000000" stroke="none" 
	d="
M278.931915,29.406767 
	C278.146027,29.687403 277.131805,29.714514 276.059387,29.408209 
	C276.902008,29.100941 277.802795,29.127092 278.931915,29.406767 
z"/>
<path fill="#BEA664" opacity="1.000000" stroke="none" 
	d="
M341.045380,76.915802 
	C340.159637,76.643532 339.273865,76.371269 338.388123,76.098999 
	C338.416351,75.860924 338.444580,75.622841 338.472839,75.384758 
	C339.183319,75.342018 339.893768,75.299286 340.857605,75.782227 
	C341.089081,76.510536 341.067230,76.713173 341.045380,76.915802 
z"/>
<path fill="#A1A1A1" opacity="1.000000" stroke="none" 
	d="
M165.327606,184.958298 
	C165.826675,184.335114 166.653625,183.692032 167.852188,183.071655 
	C167.367706,183.709045 166.511597,184.323730 165.327606,184.958298 
z"/>
<path fill="#5C5C5C" opacity="1.000000" stroke="none" 
	d="
M130.850891,135.844162 
	C130.691742,135.916000 130.532608,135.987823 130.170868,136.225540 
	C129.322357,135.821472 128.676498,135.251511 127.986160,134.354614 
	C128.696976,134.309280 129.452271,134.590866 130.506989,135.205566 
	C130.806412,135.538681 130.850891,135.844162 130.850891,135.844162 
z"/>
<path fill="#A17D24" opacity="1.000000" stroke="none" 
	d="
M133.522018,92.044945 
	C134.000259,92.526733 134.199448,93.123787 134.154053,93.879333 
	C133.723511,94.010605 133.537552,93.983383 133.073425,93.910233 
	C132.944519,93.296272 133.093750,92.728233 133.522018,92.044945 
z"/>
<path fill="#A98A32" opacity="1.000000" stroke="none" 
	d="
M348.221924,112.865967 
	C347.992493,112.375755 348.009003,111.922981 348.062622,111.132324 
	C348.222412,111.497429 348.345123,112.200409 348.221924,112.865967 
z"/>
<path fill="#A2A2A1" opacity="1.000000" stroke="none" 
	d="
M134.174713,132.604492 
	C133.875854,133.076614 133.528687,133.209534 133.181519,133.342453 
	C133.129456,132.755478 133.077377,132.168518 133.100128,131.264099 
	C133.174957,130.946671 133.486053,130.960617 133.640900,130.951233 
	C133.905960,131.382980 134.016190,131.824127 134.174713,132.604492 
z"/>
<path fill="#C9B57E" opacity="1.000000" stroke="none" 
	d="
M251.075958,112.115334 
	C251.262192,112.358521 251.171234,112.600449 251.080292,112.842392 
	C250.986465,112.599625 250.892624,112.356857 251.075958,112.115334 
z"/>
<path fill="#9E7A1A" opacity="1.000000" stroke="none" 
	d="
M341.157166,77.078751 
	C341.067230,76.713173 341.089081,76.510536 341.066101,76.004303 
	C341.359985,75.719223 341.698730,75.737740 342.245911,75.900146 
	C342.337921,76.283310 342.221466,76.522583 341.867157,77.082840 
	C341.629333,77.403824 341.268921,77.241692 341.157166,77.078751 
z"/>
<path fill="#A2A2A1" opacity="1.000000" stroke="none" 
	d="
M135.549179,131.038574 
	C135.582184,130.942291 135.548813,130.969727 135.533630,130.954651 
	C135.518448,130.939575 135.541367,131.235687 135.541367,131.235687 
	C135.541367,131.235687 135.516174,131.134857 135.549179,131.038574 
z"/>
<path fill="#A6A5A1" opacity="1.000000" stroke="none" 
	d="
M201.876984,75.299149 
	C202.089462,75.372116 202.212570,75.595932 202.135742,75.697388 
	C201.813248,75.704300 201.567596,75.609749 201.321930,75.515198 
	C201.436127,75.418861 201.550323,75.322525 201.876984,75.299149 
z"/>
<path fill="#E4E4E4" opacity="1.000000" stroke="none" 
	d="
M169.255173,106.939323 
	C169.338638,103.722183 168.591110,99.520660 174.553635,100.018074 
	C173.153076,102.336197 171.361450,104.563293 169.255173,106.939323 
z"/>
<path fill="#9D7B1D" opacity="1.000000" stroke="none" 
	d="
M177.471924,99.771530 
	C178.283646,99.475403 179.452469,99.270996 181.008362,99.111145 
	C180.206619,99.391563 179.017822,99.627411 177.471924,99.771530 
z"/>
<path fill="#FBFBFA" opacity="1.000000" stroke="none" 
	d="
M170.787140,91.130104 
	C168.532654,97.171494 166.448532,103.286354 163.898331,109.200218 
	C163.295685,110.597710 161.125839,111.319382 159.491699,112.609451 
	C152.727142,116.184761 146.318420,119.929832 139.501236,122.651947 
	C135.719604,124.161957 131.851776,122.701256 128.827164,119.275948 
	C125.892769,115.952812 127.558350,113.168777 129.006577,110.202919 
	C130.225311,107.707001 131.550339,105.262978 133.142181,102.463219 
	C133.456055,102.130447 133.828827,102.075264 133.828827,102.075264 
	C133.828827,105.140549 133.828827,108.205833 133.828827,112.003273 
	C134.762177,112.003273 136.467209,112.003273 138.859833,111.872894 
	C139.649673,111.200165 139.751923,110.657814 139.854187,110.115456 
	C139.796707,105.701813 139.739243,101.288162 140.019135,96.294037 
	C140.885864,95.094833 141.415253,94.476112 141.944626,93.857391 
	C149.154419,88.711266 156.364227,83.565140 163.901062,78.185577 
	C165.904160,82.519989 167.550568,86.082581 169.550797,90.127762 
	C170.198792,90.783600 170.492966,90.956848 170.787140,91.130104 
z"/>
<path fill="#FBFBFB" opacity="1.000000" stroke="none" 
	d="
M172.981033,47.179855 
	C176.054977,42.262665 178.574814,37.179764 184.598236,35.994743 
	C191.082565,34.719051 193.988251,37.880653 192.443756,44.360752 
	C190.628494,51.976727 185.716385,57.635056 180.330276,62.897118 
	C177.892746,65.278526 175.047043,67.242142 171.807205,69.864120 
	C168.689224,61.666420 169.839371,54.562359 172.981033,47.179855 
z"/>
<path fill="#F5F3EC" opacity="1.000000" stroke="none" 
	d="
M149.690247,78.520073 
	C150.374222,79.785927 150.586884,81.012505 150.636902,82.464104 
	C147.061432,84.146530 143.648621,85.603928 139.893707,86.988754 
	C139.558640,84.144432 139.565643,81.372688 139.781464,78.265800 
	C143.066483,78.114044 146.142700,78.297417 149.690247,78.520073 
z"/>
<path fill="#A4A29E" opacity="1.000000" stroke="none" 
	d="
M141.808441,93.554283 
	C141.415253,94.476112 140.885864,95.094833 140.069519,95.826775 
	C139.618546,93.895210 139.454544,91.850418 139.387939,89.408798 
	C140.214325,90.425034 140.943298,91.838104 141.808441,93.554283 
z"/>
<path fill="#A4A29E" opacity="1.000000" stroke="none" 
	d="
M171.063599,91.055740 
	C170.492966,90.956848 170.198792,90.783600 169.790039,90.370163 
	C170.153671,90.090843 170.631897,90.051704 171.467407,90.003189 
	C171.663147,90.322998 171.501602,90.652184 171.063599,91.055740 
z"/>
<path fill="#A4A29E" opacity="1.000000" stroke="none" 
	d="
M172.709991,87.186089 
	C172.793564,87.567215 172.639664,88.122780 172.249908,88.855476 
	C172.166870,88.475250 172.319702,87.917885 172.709991,87.186089 
z"/>
<path fill="#A4A29E" opacity="1.000000" stroke="none" 
	d="
M173.765991,84.174576 
	C173.868927,84.584991 173.710571,85.186295 173.317230,86.002563 
	C173.223068,85.600166 173.363892,84.982811 173.765991,84.174576 
z"/>
<path fill="#9A7410" opacity="1.000000" stroke="none" 
	d="
M294.139954,103.619614 
	C289.412445,100.457016 287.991272,92.192818 291.615082,87.065407 
	C292.694763,92.408752 293.409973,97.815491 294.139954,103.619614 
z"/>
<path fill="#9B7714" opacity="1.000000" stroke="none" 
	d="
M319.628967,96.812180 
	C319.761292,97.026550 319.620453,97.359436 319.249481,97.843811 
	C319.131531,97.640427 319.243683,97.285561 319.628967,96.812180 
z"/>
<path fill="#A17D24" opacity="1.000000" stroke="none" 
	d="
M134.080765,101.935486 
	C133.828827,102.075264 133.456055,102.130447 133.268921,102.144173 
	C133.185440,101.545113 133.289108,100.932335 133.660812,100.148819 
	C134.063477,100.583954 134.198090,101.189835 134.080765,101.935486 
z"/>
<path fill="#A2A2A1" opacity="1.000000" stroke="none" 
	d="
M131.620636,130.951309 
	C131.788177,131.697113 131.788177,132.455963 131.788177,133.214798 
	C131.646255,133.226715 131.504333,133.238632 131.362396,133.250549 
	C131.266541,132.696655 131.170685,132.142776 131.095932,131.274506 
	C131.117020,130.960098 131.453094,130.964340 131.620636,130.951309 
z"/>
<path fill="#A6A5A1" opacity="1.000000" stroke="none" 
	d="
M207.823807,75.554657 
	C207.909576,75.652679 207.499451,75.775330 207.294312,75.715736 
	C207.257996,75.393593 207.474289,75.327095 207.823807,75.554657 
z"/>
<path fill="#FAF8F3" opacity="1.000000" stroke="none" 
	d="
M349.411835,95.245499 
	C348.627563,89.598473 348.264771,83.935715 348.052734,77.855614 
	C355.236694,77.366760 359.441498,81.511284 358.797241,87.880058 
	C358.255096,93.239525 355.635254,95.387566 349.411835,95.245499 
z"/>
<path fill="#9F7C1A" opacity="1.000000" stroke="none" 
	d="
M255.005493,92.009140 
	C255.005493,87.254707 255.005493,82.997154 255.005493,78.739594 
	C255.484726,78.726677 255.963943,78.713753 256.443176,78.700829 
	C256.443176,89.036407 256.443176,99.371979 256.443176,109.707558 
	C253.987228,104.209785 255.498062,98.254143 255.005493,92.009140 
z"/>
<path fill="#A5A194" opacity="1.000000" stroke="none" 
	d="
M181.951584,97.547897 
	C178.803055,97.743523 175.700562,97.743523 171.446533,97.743523 
	C173.564346,93.124016 175.413330,89.090912 177.623444,85.044563 
	C178.489838,86.538277 178.995117,88.045227 179.788574,90.102226 
	C180.680130,91.456215 181.283493,92.260155 181.886856,93.064095 
	C181.886856,93.064095 181.903076,93.039841 181.815399,93.436844 
	C181.868042,94.882500 182.008362,95.931160 182.148666,96.979813 
	C182.148666,96.979813 181.997635,97.352280 181.951584,97.547897 
z"/>
<path fill="#9A7515" opacity="1.000000" stroke="none" 
	d="
M181.920990,92.718285 
	C181.283493,92.260155 180.680130,91.456215 180.036194,90.332184 
	C180.167755,89.632210 180.339874,89.252342 180.511993,88.872467 
	C180.993042,90.039139 181.474075,91.205803 181.920990,92.718285 
z"/>
<path fill="#9A7515" opacity="1.000000" stroke="none" 
	d="
M182.426575,96.942245 
	C182.008362,95.931160 181.868042,94.882500 181.818573,93.445175 
	C182.174438,94.339226 182.439453,95.621948 182.426575,96.942245 
z"/>
<path fill="#A4A29E" opacity="1.000000" stroke="none" 
	d="
M139.646439,110.248856 
	C139.751923,110.657814 139.649673,111.200165 139.278687,111.755783 
	C139.152863,111.306778 139.295776,110.844521 139.646439,110.248856 
z"/>
<path fill="#A2A2A1" opacity="1.000000" stroke="none" 
	d="
M131.073456,135.845886 
	C130.850891,135.844162 130.806412,135.538681 130.809357,135.384644 
	C130.973541,135.436279 131.134796,135.641937 131.073456,135.845886 
z"/>
</svg>