<svg version="1.1" id="Layer_1" xmlns="http://www.w3.org/2000/svg" xmlns:xlink="http://www.w3.org/1999/xlink" x="0px" y="0px"
	 width="100%" viewBox="0 0 992 992" enable-background="new 0 0 992 992" xml:space="preserve">
<path fill="#000000" opacity="1.000000" stroke="none" 
	d="
M351.932190,561.918762 
	C341.737793,527.341797 334.721619,492.544373 330.521484,457.134949 
	C327.030273,427.702057 325.229523,398.209747 324.436371,368.578339 
	C323.945435,350.237793 324.518097,331.951050 324.913269,313.662109 
	C325.387329,291.721832 327.234772,269.824829 329.675201,247.995026 
	C330.014832,244.956955 331.877625,244.113541 334.341949,243.803482 
	C354.794800,241.230209 375.294830,239.201660 395.850861,237.557159 
	C439.725525,234.047134 483.661438,233.141479 527.633850,233.859360 
	C553.590576,234.283127 579.523254,235.481567 605.428589,237.478760 
	C625.997131,239.064499 646.486694,241.211349 666.957825,243.673569 
	C670.412537,244.089096 672.384644,245.231583 672.709045,249.014572 
	C673.759583,261.263336 675.342651,273.472839 676.146484,285.735077 
	C678.086060,315.323181 678.999878,344.961090 678.013855,374.601898 
	C677.157288,400.352783 675.544128,426.055450 672.518311,451.684875 
	C668.379089,486.744324 662.180786,521.364197 652.322571,555.267822 
	C639.201843,600.391479 620.806396,643.069702 591.720337,680.419128 
	C566.501160,712.803040 536.485901,740.421326 504.571228,766.054993 
	C502.356506,767.833740 500.497314,768.432190 498.000519,766.351929 
	C464.651093,738.567017 432.563751,709.511597 406.288300,674.673950 
	C385.628754,647.282227 371.032043,616.691895 359.519440,584.536316 
	C356.884827,577.177612 354.539307,569.715454 351.932190,561.918762 
M509.407013,597.702576 
	C502.616669,608.244446 494.603821,610.730225 484.526093,605.410828 
	C482.759705,604.478516 481.081360,603.333862 479.234985,602.613892 
	C477.939331,602.108643 476.332153,601.164124 475.036346,602.520935 
	C473.871918,603.740173 474.190704,605.341125 474.737244,606.763184 
	C475.886719,609.753967 477.136932,612.706116 478.442017,615.910400 
	C470.211029,615.570801 465.642578,610.096069 467.001740,602.487305 
	C468.904114,591.837524 473.870697,582.735962 481.938995,575.472107 
	C486.071259,571.751892 489.391022,567.419006 492.366272,562.784302 
	C493.053497,561.713806 494.043152,560.584839 492.638275,558.707458 
	C482.878204,560.429810 472.867432,558.706604 462.817535,558.322327 
	C461.666840,558.278320 460.236603,558.141785 459.389771,558.716614 
	C452.016022,563.722107 443.678345,561.982666 435.644135,562.287109 
	C431.406738,562.447754 427.322357,563.141724 423.856659,565.706421 
	C421.518616,567.436523 419.736267,569.594116 421.420959,572.827942 
	C438.516998,568.574036 439.161255,572.160522 441.301361,582.103394 
	C443.809235,578.181824 441.551483,573.714600 444.122375,568.398132 
	C444.948242,577.597534 450.580750,575.582275 455.216553,575.673462 
	C456.382324,575.696411 457.548370,575.710083 458.714325,575.720642 
	C463.243286,575.761536 465.006805,578.464600 464.669983,582.524536 
	C464.439331,585.304810 463.672241,588.085510 462.815125,590.760376 
	C460.413696,598.254211 456.486237,605.044312 452.807007,611.952637 
	C447.889801,621.185425 446.604889,630.875427 450.092346,640.870178 
	C453.759094,651.378540 461.007141,658.895081 470.292145,664.810059 
	C480.592896,671.371948 488.235352,680.073120 490.912720,692.444336 
	C491.852325,696.786011 491.380768,699.725342 486.145386,700.816711 
	C480.771698,701.937073 475.710876,704.224609 471.139587,707.404907 
	C469.414459,708.605164 467.701904,709.808960 467.136383,712.930298 
	C481.750946,705.301819 496.723419,709.033997 512.011169,709.084656 
	C507.937683,706.361633 503.897858,705.397278 499.942749,704.212708 
	C497.984100,703.626038 496.179932,702.897217 495.762512,700.484619 
	C494.389252,692.546814 493.902496,684.614929 496.039032,676.739197 
	C497.624207,670.895752 499.554047,669.740479 505.518066,671.257996 
	C509.924194,672.379150 514.240601,673.852905 518.569885,675.161377 
	C519.233582,672.990540 516.391174,670.761719 518.874634,669.402039 
	C520.948486,668.266663 523.004333,669.736145 524.780457,671.039795 
	C525.049072,671.236816 525.312744,671.442688 525.594482,671.619263 
	C530.576477,674.740784 534.153809,679.322876 538.162903,684.266296 
	C536.284119,669.251892 526.462585,659.121765 518.672058,647.935669 
	C522.009888,645.512451 524.672791,647.824768 527.383850,647.738586 
	C532.879395,647.563782 533.902405,646.474304 532.596497,641.107727 
	C531.695557,637.405273 530.786499,633.704834 529.881042,630.003479 
	C530.352234,629.823547 530.823425,629.643616 531.294617,629.463623 
	C533.747559,633.895020 536.298218,638.276123 538.613525,642.778259 
	C539.828064,645.139832 541.179565,645.853394 543.767700,644.800232 
	C550.670044,641.991455 556.644897,637.906982 561.859619,632.610046 
	C563.900940,630.536560 563.968262,628.900818 561.858032,626.710083 
	C559.705383,624.475281 556.670654,622.811768 555.624146,619.169312 
	C558.775879,619.269470 560.777588,620.941223 562.804688,622.202393 
	C566.462524,624.478210 568.868591,623.622131 571.099304,620.190063 
	C573.920532,615.849426 576.436707,611.369995 578.653748,606.694153 
	C580.035095,603.780823 579.292114,602.161987 576.379089,600.862671 
	C573.773804,599.700684 570.825195,598.963745 568.376953,596.331787 
	C571.571899,595.555115 574.251343,596.289001 576.577942,596.992798 
	C581.237488,598.402405 583.468872,596.395813 585.061401,592.504944 
	C587.268921,587.111511 589.323547,581.670471 590.764526,576.012939 
	C591.210510,574.261658 592.223755,572.383118 590.455322,570.910706 
	C588.705261,569.453552 587.007446,570.722290 585.357544,571.466492 
	C572.796875,577.132263 559.512329,579.914246 545.893738,581.366455 
	C536.661316,582.351013 527.421875,583.277954 518.202271,584.371460 
	C515.178772,584.729980 512.665527,586.260071 512.470886,589.627930 
	C512.307800,592.449890 511.011139,594.699097 509.407013,597.702576 
M563.901001,413.726654 
	C571.163757,413.726654 578.426453,413.726654 585.821289,413.726654 
	C583.517151,411.988922 580.920593,411.302704 578.383728,410.580048 
	C576.413269,410.018738 575.149963,409.066833 574.774414,406.983185 
	C573.669495,400.854401 573.713806,394.775757 575.130066,388.681946 
	C576.127686,384.389709 578.698608,382.871124 582.825500,383.944427 
	C586.317627,384.852570 589.758789,385.956696 593.394958,387.024719 
	C594.064392,385.138916 592.785461,382.841522 595.046509,381.903717 
	C597.377502,380.936859 598.212524,383.036377 599.521301,384.171600 
	C602.416199,386.682495 605.328735,389.173126 608.799622,392.158447 
	C608.793823,387.995422 607.368958,385.201660 605.881470,382.427734 
	C603.347473,377.702240 600.103088,373.488434 596.662781,369.396454 
	C595.580200,368.108734 593.409119,366.890411 594.826843,364.784607 
	C595.982483,363.068176 597.800293,363.885284 599.395691,364.425140 
	C599.862915,364.583191 600.368591,364.652740 600.862610,364.702393 
	C604.166199,365.034302 605.858582,364.347076 604.960876,360.279419 
	C604.276306,357.177795 602.903625,354.056183 603.348572,350.629944 
	C603.905273,350.797028 604.357056,350.791687 604.499146,350.998779 
	C605.246216,352.087830 605.951172,353.209991 606.605591,354.357819 
	C612.219360,364.203979 613.507019,364.446564 622.801636,357.361969 
	C623.199158,357.058899 623.591980,356.749390 623.981934,356.436615 
	C630.438965,351.257965 630.432861,351.262878 624.954468,344.941589 
	C624.673157,344.617035 624.638550,344.078613 624.385559,343.335754 
	C626.892700,343.205902 628.648743,344.555145 630.457214,345.561127 
	C632.572998,346.737976 634.183716,346.569641 635.542847,344.452484 
	C638.501038,339.844513 641.319275,335.171265 643.224121,330.082458 
	C640.970764,327.322937 636.863037,327.696228 634.934814,324.503387 
	C646.377075,324.483551 646.380737,324.484863 650.455383,313.095612 
	C650.903503,311.842926 651.389465,310.587982 651.665833,309.293091 
	C652.125671,307.138611 653.630432,304.974976 651.710449,302.433868 
	C647.563843,304.047272 643.502869,305.917236 639.267517,307.220490 
	C626.970154,311.004517 614.291199,312.694916 601.478943,313.286407 
	C592.845093,313.684998 591.990173,314.078766 589.056335,321.493958 
	C584.642761,332.648987 576.295654,335.738159 565.485046,330.249207 
	C563.760803,329.373718 562.101990,328.039459 559.823853,328.956360 
	C558.037598,333.067566 561.812744,335.879944 562.634827,339.453003 
	C555.356018,339.015015 551.616943,334.200928 553.135620,327.313141 
	C554.980774,318.944580 559.074890,311.843414 565.573181,306.149780 
	C569.418457,302.780731 572.552185,298.871979 574.968750,292.860046 
	C565.455872,295.443909 557.080627,293.711731 548.680481,293.331024 
	C546.785217,293.245148 544.923950,293.761078 543.453796,294.783539 
	C541.063477,296.445892 538.536438,296.539551 535.834900,296.371735 
	C530.473816,296.038635 525.188110,296.504639 520.105896,298.352264 
	C517.078796,299.452759 515.047791,301.298065 515.749268,305.972290 
	C521.613464,301.663574 527.424744,305.098846 533.582764,305.234528 
	C534.115173,309.893982 538.302917,308.595215 541.772949,308.646912 
	C549.299866,308.759033 550.746582,310.310822 549.240356,317.647003 
	C547.784241,324.738831 544.253967,331.030426 540.940918,337.379059 
	C539.083130,340.939056 537.559875,344.557312 537.214294,348.665375 
	C535.999084,363.112122 543.342346,372.656158 554.859070,379.820038 
	C562.481079,384.561249 568.193909,390.765656 570.764465,399.559296 
	C572.424988,405.239838 571.591431,406.692413 566.183838,408.872253 
	C561.484558,410.766510 556.272583,411.900146 552.642151,416.663635 
	C556.387085,415.629028 559.693665,414.715515 563.901001,413.726654 
M407.013977,293.261200 
	C400.561768,294.893372 394.109650,294.046387 387.707062,293.044281 
	C385.287140,292.665527 382.728699,292.537354 380.891235,293.690308 
	C375.665009,296.969543 370.001282,296.235443 364.402496,296.258270 
	C360.830688,296.272827 357.432220,296.851318 354.293274,298.542145 
	C351.861969,299.851746 350.034607,301.600433 350.830597,305.108582 
	C356.545105,304.176025 362.334930,301.122253 366.739410,306.889496 
	C367.914551,306.301941 367.378906,304.608215 369.205841,304.779938 
	C369.848083,308.656586 372.388519,308.390625 375.758575,308.041534 
	C384.324066,307.154205 386.754089,310.327698 384.620026,318.561951 
	C383.016083,324.750671 380.059753,330.324463 377.070374,335.906647 
	C373.812134,341.990784 371.464996,348.232208 372.857513,355.426147 
	C374.970398,366.341766 381.296936,373.932068 390.601196,379.549469 
	C398.880463,384.548035 404.866364,391.362000 406.936584,401.198273 
	C407.744659,405.037628 406.732208,407.036377 402.899597,408.263489 
	C398.795654,409.577515 394.299774,410.433228 390.459930,414.773041 
	C401.824982,413.160278 412.231720,413.481262 423.146332,414.255798 
	C421.228394,412.357117 419.255493,411.916748 417.435760,411.238373 
	C410.518677,408.659668 409.921021,407.821472 409.658051,400.227081 
	C409.524872,396.380859 409.992981,392.624176 410.648315,388.832062 
	C411.367523,384.670227 413.581451,383.366241 417.593719,383.626495 
	C421.479706,383.878571 424.818512,386.046082 428.714264,386.434174 
	C429.925568,385.066681 427.979309,382.953430 430.412384,381.524506 
	C436.269928,382.640472 439.634888,388.123718 444.297760,391.852783 
	C444.983398,389.993439 444.300476,388.785278 443.870300,387.553741 
	C441.293640,380.177002 436.742157,374.059967 431.612366,368.301727 
	C430.763275,367.348633 429.572815,366.311707 430.484467,364.824188 
	C431.352264,363.408264 432.748810,363.741150 434.074127,364.064606 
	C436.316742,364.612000 438.562317,365.169769 440.783173,363.862366 
	C441.035370,359.384949 438.255249,355.373810 438.971252,350.016541 
	C439.951630,351.321442 440.487000,351.898560 440.869720,352.563568 
	C447.380005,363.875702 448.841675,364.145050 459.212677,355.893982 
	C459.603577,355.583008 459.994354,355.271240 460.374176,354.946960 
	C465.401581,350.654633 465.398285,350.540131 461.059296,345.793762 
	C460.452942,345.130463 459.358643,344.510803 460.298065,343.216034 
	C462.547180,343.183472 464.269440,344.637024 466.178802,345.510406 
	C467.915497,346.304718 469.422302,346.439911 470.570343,344.733490 
	C473.701172,340.079926 476.576141,335.287323 478.471191,330.229095 
	C476.054291,327.441528 472.134949,327.810669 470.344910,324.662445 
	C472.535004,323.662384 474.429138,324.899323 476.345154,324.694183 
	C477.948700,324.522522 480.012543,325.433838 480.986755,323.735962 
	C484.672119,317.313171 487.215942,310.473785 488.534485,302.154877 
	C482.962250,304.162415 478.517975,305.920807 473.975037,307.369781 
	C461.860565,311.233795 449.317352,312.538483 436.701202,313.324493 
	C430.972931,313.681396 426.254791,314.134247 424.112610,321.528778 
	C421.142242,331.782288 412.639038,335.282410 403.858246,331.579895 
	C402.174988,330.870087 400.598511,329.910522 398.932068,329.156067 
	C397.734039,328.613617 396.429718,327.926575 395.236572,329.128937 
	C394.208801,330.164520 394.840179,331.363342 395.227966,332.408691 
	C396.114899,334.799255 397.138824,337.139038 398.194733,339.713043 
	C390.995575,338.642334 388.384247,336.008362 388.740173,329.617035 
	C389.237061,320.694885 393.600342,313.459442 399.869476,307.405304 
	C403.136475,304.250305 406.064240,300.891785 408.450378,297.063232 
	C409.279907,295.732239 410.636017,294.043732 407.013977,293.261200 
M456.602936,470.908447 
	C459.720520,467.107086 460.647827,462.174133 463.219208,458.098236 
	C464.301147,456.383209 464.580933,453.485168 467.480194,453.953369 
	C470.130096,454.381317 469.538910,457.183594 469.948364,458.897217 
	C471.026123,463.407501 471.600128,468.039337 472.341827,472.628082 
	C472.611176,474.294495 473.455719,475.402924 475.151093,475.683716 
	C476.712280,475.942291 478.216614,475.086121 478.112457,473.738159 
	C477.853943,470.392181 480.247437,466.456024 476.063202,463.828339 
	C473.606262,462.285339 474.118744,459.757690 474.722595,457.500214 
	C475.425354,454.872833 477.550903,455.176422 479.613678,455.507446 
	C484.580780,456.304535 486.180725,453.548737 487.082153,449.155182 
	C488.014435,444.611328 488.219208,440.812012 483.128265,438.830048 
	C463.716003,431.272430 445.104156,431.847900 427.608002,444.236206 
	C424.488373,446.445129 422.530487,449.264709 421.129486,452.821045 
	C414.415894,469.862854 407.502319,486.825806 400.685455,503.827026 
	C399.913391,505.752533 398.126129,508.022827 400.566223,509.671570 
	C403.160858,511.424683 405.527222,514.755554 409.137451,513.495300 
	C412.772400,512.226440 416.559631,510.971924 419.562561,508.786835 
	C419.266968,506.706421 416.946045,507.809052 416.623444,506.195648 
	C417.205017,505.173950 418.254761,505.042328 419.195282,504.788483 
	C420.637482,504.399261 422.095764,504.042053 423.568054,503.795715 
	C444.914246,500.224365 464.589813,504.597351 482.696045,516.317017 
	C485.277954,517.988281 487.809692,519.646301 492.242523,518.545959 
	C483.388367,511.251526 482.197144,503.400818 486.251740,493.586151 
	C489.171844,486.517609 486.870819,483.467865 479.702606,480.560089 
	C477.101227,479.504883 474.446136,478.661774 471.651428,478.050049 
	C468.905212,477.448914 465.526886,478.106812 463.525055,475.500336 
	C463.016724,473.652191 466.942932,471.262207 462.630463,470.333954 
	C462.247925,470.251617 461.759552,470.661041 461.504578,470.766144 
	C460.494873,472.166138 462.521698,473.471375 461.420624,474.499878 
	C454.831146,474.499878 448.447296,474.499878 441.021606,474.499878 
	C445.609589,469.506012 447.622467,464.880188 446.397675,458.987579 
	C443.768250,458.987579 441.518799,458.987579 439.433197,458.987579 
	C436.827789,462.821411 441.100983,470.086395 433.306763,470.196350 
	C432.063599,472.097443 434.689728,473.197083 433.177460,475.175507 
	C429.535004,475.789764 425.683777,477.901154 420.921051,476.623230 
	C425.616882,470.440704 429.302216,464.381714 427.446136,456.465271 
	C437.207703,452.377869 447.392273,453.038483 457.696808,453.441315 
	C454.046326,458.125916 453.464600,463.350555 452.421570,468.336853 
	C451.874695,470.951233 452.355865,473.395569 456.602936,470.908447 
M544.765198,502.821411 
	C551.707458,502.392029 558.590637,501.265289 565.614136,502.604095 
	C573.217468,504.053467 581.358826,504.016907 585.527222,512.371094 
	C586.126831,513.572998 587.284851,513.646484 588.555603,513.498901 
	C593.580994,512.915161 595.725220,509.284821 593.820801,504.262238 
	C587.152588,486.676331 580.408508,469.119019 573.780396,451.518066 
	C572.623535,448.446045 570.819885,446.058319 568.303589,443.974487 
	C553.462952,431.684418 536.911743,430.756012 519.412231,436.613342 
	C511.284607,439.333801 510.129303,442.688721 513.788025,450.637024 
	C515.335876,453.999542 516.507935,457.560089 521.463135,456.273865 
	C522.221802,456.076965 523.010254,456.770660 523.577576,458.232361 
	C520.131653,462.129456 521.621460,467.265930 521.381042,472.159973 
	C521.294128,473.928162 521.764221,475.657776 523.638184,476.182556 
	C525.396362,476.674927 527.176758,475.751923 527.973633,474.330109 
	C529.731140,471.194122 532.494080,468.628876 531.895081,464.200073 
	C531.506470,461.326996 529.693176,459.172760 529.056885,455.902435 
	C536.284668,455.753326 543.307007,454.316864 549.927307,456.304413 
	C555.144775,457.870789 560.335510,459.380219 565.680054,460.331818 
	C568.423706,460.820312 569.564026,461.964050 567.405640,464.181641 
	C564.311523,467.360596 565.381104,470.139496 567.686218,472.978363 
	C569.402283,475.091766 571.183350,477.152405 573.068237,479.394409 
	C568.845337,480.456848 568.845337,480.456848 562.638611,478.549408 
	C561.458069,477.231567 563.983215,474.771118 561.227661,473.909912 
	C559.298279,474.759064 561.580322,476.871155 559.491089,478.088837 
	C557.412048,478.784790 555.354187,477.493408 553.078186,476.522644 
	C558.946350,467.388763 558.224609,463.549438 550.258728,460.781281 
	C548.183716,463.840729 550.657532,466.871735 550.412476,469.932983 
	C550.074524,474.154785 548.481445,476.282318 544.022522,476.476898 
	C539.922180,476.655762 536.311646,475.705261 532.489136,472.635040 
	C533.085632,477.351685 530.602234,478.553131 527.458618,479.337280 
	C523.573608,480.306396 520.053711,482.379944 516.293030,483.589966 
	C510.494171,485.455811 508.173492,489.429749 507.380066,494.982666 
	C506.557953,500.736206 505.593506,506.470276 504.621979,512.201111 
	C504.328735,513.930847 502.851532,515.802612 504.770172,517.258911 
	C506.732971,518.748718 508.612305,517.463806 510.258514,516.333435 
	C520.462708,509.326660 531.838379,505.293762 544.765198,502.821411 
M440.576141,588.316345 
	C438.711548,587.714722 436.881348,586.950073 434.974731,586.547485 
	C431.614899,585.838196 428.024597,588.391541 428.780304,591.653259 
	C429.523651,594.861633 427.871155,599.174316 431.349854,601.215881 
	C434.603943,603.125610 436.154785,599.483276 438.243408,597.848328 
	C438.484314,597.659790 438.891693,597.700012 439.175507,597.547668 
	C443.182343,595.397339 443.693298,593.024109 440.576141,588.316345 
M366.183563,324.743317 
	C368.471771,322.230865 367.742798,319.718628 365.696838,317.705780 
	C363.811096,315.850464 360.932831,315.388885 358.882141,316.863525 
	C354.704529,319.867615 357.783264,323.986450 357.526062,327.627167 
	C361.047302,328.542297 363.141663,326.175232 366.183563,324.743317 
M523.083496,317.517578 
	C519.496094,320.232300 521.561462,323.848206 521.661438,327.100800 
	C521.695190,328.201324 522.950623,328.466522 524.025696,328.405426 
	C528.111633,328.173309 532.139648,324.580658 531.725647,321.324890 
	C531.065308,316.132568 527.315674,316.589661 523.083496,317.517578 
M538.987244,460.489380 
	C539.235413,463.094482 539.245300,465.751587 539.799194,468.289978 
	C540.348389,470.807007 541.567505,473.169250 544.889038,472.285126 
	C547.883972,471.487946 547.827759,469.085205 547.419312,466.680908 
	C547.171509,465.221893 546.828735,463.768677 546.396301,462.353241 
	C545.079346,458.042633 543.385559,457.481781 538.987244,460.489380 
z"/>
<path fill="#000000" opacity="1.000000" stroke="none" 
	d="
M456.229675,562.788940 
	C461.164642,560.641663 465.240875,562.428528 470.126648,564.375488 
	C463.831482,569.056213 457.105499,564.605713 450.784210,567.434204 
	C451.812897,564.269348 454.115906,563.939575 456.229675,562.788940 
z"/>
<path fill="#000000" opacity="1.000000" stroke="none" 
	d="
M490.421021,673.382568 
	C495.084290,675.301636 491.593292,678.157227 491.387817,680.775879 
	C489.659088,678.521667 487.930389,676.267456 486.274292,674.107971 
	C487.580170,672.159912 488.856812,672.961243 490.421021,673.382568 
z"/>
<path fill="#000000" opacity="1.000000" stroke="none" 
	d="
M547.992310,296.479065 
	C550.337158,296.626465 552.174072,297.230316 554.369019,298.521515 
	C550.091675,300.556366 546.173828,300.230469 541.874023,298.974579 
	C543.550720,297.151825 545.463745,296.528320 547.992310,296.479065 
z"/>
<path fill="#000000" opacity="1.000000" stroke="none" 
	d="
M378.473022,297.773254 
	C382.458862,295.575165 385.950684,296.431396 390.143280,298.455841 
	C385.691406,300.658569 381.821564,300.005524 377.953033,299.146790 
	C377.944427,299.144897 378.110626,298.355255 378.473022,297.773254 
z"/>
<path fill="#000000" opacity="1.000000" stroke="none" 
	d="
M407.999512,384.935059 
	C409.838257,386.544434 409.856201,388.178070 408.693481,390.292969 
	C406.586823,389.028473 405.379547,387.263062 404.502686,385.239532 
	C405.530426,383.654388 406.663971,384.835785 407.999512,384.935059 
z"/>
</svg>