<svg version="1.1" id="Layer_1" xmlns="http://www.w3.org/2000/svg" xmlns:xlink="http://www.w3.org/1999/xlink" x="0px" y="0px"
	 width="100%" viewBox="0 0 200 200" enable-background="new 0 0 200 200" xml:space="preserve">
<path fill="#0C1F2D" opacity="1.000000" stroke="none" 
	d="
M118.000000,201.000000 
	C78.690948,201.000000 39.881901,201.000000 1.036424,201.000000 
	C1.036424,134.399323 1.036424,67.798615 1.036424,1.098956 
	C67.558884,1.098956 134.117950,1.098956 200.838516,1.098956 
	C200.838516,67.666351 200.838516,134.333145 200.838516,201.000000 
	C173.465561,201.000000 145.982788,201.000000 118.000000,201.000000 
M141.790009,152.151535 
	C142.032089,151.879364 142.274155,151.607193 143.182190,151.070389 
	C144.171844,150.061081 145.161514,149.051773 146.749954,147.772186 
	C150.842072,142.034103 154.934189,136.296021 159.406631,130.193634 
	C159.644485,129.549362 159.882339,128.905106 160.598129,127.786850 
	C161.039978,126.523064 161.481812,125.259285 162.313309,123.352173 
	C163.450043,119.227753 164.586792,115.103340 166.605667,110.987617 
	C169.726913,111.317108 170.931198,110.049362 171.097031,106.788445 
	C171.300613,102.785141 172.307007,98.826065 172.871719,94.834473 
	C172.967743,94.155846 172.588501,93.409966 172.399338,92.563156 
	C171.032120,93.545860 170.017593,94.275070 168.993393,94.199562 
	C167.753952,92.520546 166.514511,90.841530 164.991943,88.503098 
	C159.475174,61.442657 137.263077,39.846310 108.152718,36.428326 
	C96.487267,35.058628 85.250000,36.873108 74.528328,41.624275 
	C73.735603,41.975567 73.466316,43.508030 72.579582,44.570511 
	C72.219597,44.697857 71.859619,44.825207 71.783737,43.984268 
	C71.188835,43.987965 70.593933,43.991657 69.296272,44.113308 
	C68.702065,44.727608 68.107857,45.341904 67.477051,45.949780 
	C67.477051,45.949780 67.457329,45.981274 66.709778,45.754963 
	C53.135548,54.092098 43.631912,65.637421 38.544014,81.602936 
	C37.747940,85.415886 36.951862,89.228828 35.891239,93.488228 
	C35.891125,94.335358 35.891010,95.182487 35.655304,96.936890 
	C35.739841,101.050079 35.215790,105.290779 36.044872,109.247978 
	C37.453545,115.971573 39.648521,122.537209 41.700035,129.110870 
	C41.959576,129.942520 42.483181,133.193237 44.586365,130.412460 
	C44.710396,130.764740 44.834427,131.117004 43.797474,131.644974 
	C44.849239,133.104874 45.901001,134.564774 46.998779,136.001221 
	C46.998779,136.001221 46.956421,136.031128 46.095131,136.491959 
	C46.712898,136.997543 47.330666,137.503113 47.985748,138.005859 
	C47.985748,138.005859 47.958210,138.031204 47.378635,138.448990 
	C47.499672,138.654083 47.620705,138.859192 47.927280,139.739639 
	C52.930042,144.601730 57.932800,149.463837 63.255341,154.820236 
	C64.261696,155.417114 65.268051,156.013977 66.792648,157.101898 
	C79.534348,164.622009 93.140312,168.171875 108.358078,166.246796 
	C108.889229,166.116043 109.420380,165.985275 110.746834,165.939499 
	C120.741676,164.251602 130.068008,160.936600 138.778290,154.465118 
	C139.566635,153.778336 140.354996,153.091568 141.158890,152.340317 
	C141.158890,152.340317 141.248154,152.283127 141.790009,152.151535 
z"/>
<path fill="#112332" opacity="1.000000" stroke="none" 
	d="
M71.499634,44.952557 
	C71.859619,44.825207 72.219597,44.697857 73.163254,44.626717 
	C81.834221,41.179665 90.119843,38.620243 99.534096,38.923660 
	C99.534096,41.652428 99.523392,43.952053 99.535805,46.251556 
	C99.627075,63.166058 99.722961,80.080536 99.703354,97.388550 
	C98.113823,98.534752 96.644257,99.928261 95.161926,99.941978 
	C78.444733,100.096619 61.725574,100.039497 45.006947,100.039215 
	C42.746635,100.039169 40.486324,100.039207 38.226540,100.039207 
	C38.134037,98.302147 38.072689,97.150047 38.118534,95.681824 
	C38.207497,94.924965 38.189266,94.484245 38.326210,93.684723 
	C39.369732,89.233437 40.258076,85.140961 41.366661,80.778526 
	C46.455887,67.441895 54.567001,56.931538 66.135475,49.071423 
	C66.915749,48.541271 67.032158,47.034061 67.457329,45.981274 
	C67.457329,45.981274 67.477051,45.949780 67.199181,46.400146 
	C67.990685,46.692898 69.060051,46.535286 70.506630,46.272331 
	C71.089096,45.762180 71.294365,45.357368 71.499634,44.952557 
M81.187050,88.048927 
	C83.027161,85.449242 86.094078,83.009033 86.456993,80.217323 
	C87.261078,74.031815 86.707382,67.669800 86.707382,61.154037 
	C84.853004,61.154037 83.321701,61.154037 81.373703,61.154037 
	C81.373703,66.798599 81.375519,72.100761 81.373062,77.402924 
	C81.371391,81.021217 80.746964,84.213364 76.145058,84.301987 
	C71.249290,84.396278 70.554100,81.083389 70.557678,77.248123 
	C70.562622,71.951271 70.558907,66.654411 70.558907,61.097801 
	C68.529716,61.097801 66.979950,61.097801 65.016670,61.097801 
	C65.016670,66.350624 64.992363,71.317810 65.021713,76.284676 
	C65.083412,86.724411 70.192604,90.705299 81.187050,88.048927 
z"/>
<path fill="#122432" opacity="1.000000" stroke="none" 
	d="
M44.958458,131.469284 
	C44.834427,131.117004 44.710396,130.764740 44.545631,129.802170 
	C43.919754,127.692810 43.334610,126.193748 42.474461,123.990158 
	C61.743732,123.990158 80.370445,123.990158 99.053513,124.123329 
	C99.109863,124.256500 99.396690,124.219978 99.432266,124.623055 
	C99.690224,127.110481 99.912598,129.194824 100.159103,131.314117 
	C100.183220,131.349075 100.116982,131.402237 99.873215,132.010742 
	C100.424438,133.636246 101.219421,134.653275 102.018608,135.621338 
	C102.022804,135.572372 102.056725,135.480133 101.700073,134.938232 
	C100.637711,137.184921 99.931999,139.973541 99.149292,142.748672 
	C99.072311,142.735199 99.018272,142.881866 98.548492,142.884583 
	C84.054222,142.938095 70.029732,142.988876 55.659939,142.943909 
	C53.249332,141.007050 51.184029,139.165909 48.677643,137.253387 
	C48.143776,137.465088 48.050991,137.748138 47.958210,138.031204 
	C47.958210,138.031204 47.985748,138.005859 48.485451,137.795807 
	C48.308907,137.067551 47.632664,136.549332 46.956421,136.031128 
	C46.956421,136.031128 46.998779,136.001221 47.411827,135.840302 
	C46.869400,134.276031 45.913929,132.872650 44.958458,131.469284 
z"/>
<path fill="#D5E0E4" opacity="1.000000" stroke="none" 
	d="
M98.997162,123.990158 
	C80.370445,123.990158 61.743732,123.990158 42.474461,123.990158 
	C43.334610,126.193748 43.919754,127.692810 44.516491,129.617279 
	C42.483181,133.193237 41.959576,129.942520 41.700035,129.110870 
	C39.648521,122.537209 37.453545,115.971573 36.044872,109.247978 
	C35.215790,105.290779 35.739841,101.050079 36.126194,96.462875 
	C37.068501,95.991898 37.539921,95.994926 38.011337,95.997955 
	C38.072689,97.150047 38.134037,98.302147 38.226540,100.039207 
	C40.486324,100.039207 42.746635,100.039169 45.006947,100.039215 
	C61.725574,100.039497 78.444733,100.096619 95.161926,99.941978 
	C96.644257,99.928261 98.113823,98.534752 100.047028,97.387344 
	C100.962967,96.995476 101.421188,96.998337 101.956909,97.341339 
	C101.844101,101.282661 104.598351,99.974655 106.216087,99.981766 
	C124.112366,100.060471 142.009140,100.034775 159.905746,100.012154 
	C161.007721,100.010757 162.109436,99.797722 163.116898,99.692970 
	C163.116898,96.914818 163.116898,94.457336 163.415375,92.000053 
	C164.310730,92.004936 164.907623,92.009621 165.569397,92.396057 
	C165.840424,94.306664 166.046600,95.835518 166.178741,97.737701 
	C166.181305,99.376434 166.257919,100.641830 166.239594,102.302010 
	C166.004288,105.457504 165.863907,108.218216 165.723526,110.978920 
	C164.586792,115.103340 163.450043,119.227753 161.732452,123.680557 
	C160.379639,124.031624 159.607681,124.054321 158.377777,124.056107 
	C139.335052,124.076187 120.750298,124.117188 102.113693,124.107674 
	C102.061844,124.057167 101.958565,123.955719 102.014053,123.559341 
	C102.209023,122.648560 102.348503,122.134163 102.920494,121.582550 
	C120.445740,121.540100 137.538467,121.538734 154.631210,121.527702 
	C161.316895,121.523392 162.184769,120.490196 162.004807,112.881493 
	C162.455933,111.956703 162.654053,111.284157 162.903320,110.169312 
	C163.153671,107.599518 163.352921,105.472015 163.585236,102.991425 
	C142.919769,102.991425 122.695168,102.991425 101.952026,102.991425 
	C101.952026,105.435013 101.952026,107.724823 101.871704,110.185150 
	C102.192390,110.569237 102.593384,110.782799 103.002472,111.009621 
	C103.010567,111.022873 102.982536,111.036293 102.853378,111.324799 
	C102.523178,112.210762 102.322128,112.808212 102.114517,113.738625 
	C102.227425,116.581764 102.346886,119.091934 101.862137,121.663086 
	C100.450195,121.678322 99.642456,121.632576 99.039040,121.188675 
	C99.243370,114.878708 99.243370,108.966896 99.243370,103.100754 
	C78.649307,103.100754 58.450756,103.100754 37.610149,103.100754 
	C38.458496,108.007240 39.309544,112.386932 39.948879,116.797310 
	C40.467499,120.374969 42.153049,121.599045 45.921947,121.559326 
	C63.567825,121.373436 81.217308,121.530312 98.903778,121.967941 
	C98.960419,122.910820 98.978790,123.450493 98.997162,123.990158 
z"/>
<path fill="#D3DDE3" opacity="1.000000" stroke="none" 
	d="
M101.879410,97.001205 
	C101.421188,96.998337 100.962967,96.995476 100.161072,96.993813 
	C99.722961,80.080536 99.627075,63.166058 99.535805,46.251556 
	C99.523392,43.952053 99.534096,41.652428 99.534096,38.923660 
	C90.119843,38.620243 81.834221,41.179665 73.350304,44.587151 
	C73.466316,43.508030 73.735603,41.975567 74.528328,41.624275 
	C85.250000,36.873108 96.487267,35.058628 108.152718,36.428326 
	C137.263077,39.846310 159.475174,61.442657 165.081467,89.189850 
	C165.282166,90.589180 165.393341,91.301743 165.504517,92.014313 
	C164.907623,92.009621 164.310730,92.004936 163.259293,91.647766 
	C156.464279,60.340248 128.804810,36.443737 101.879410,39.302036 
	C101.879410,58.485149 101.879410,77.743179 101.879410,97.001205 
z"/>
<path fill="#D5E0E4" opacity="1.000000" stroke="none" 
	d="
M107.977196,166.067154 
	C93.140312,168.171875 79.534348,164.622009 66.747002,156.676346 
	C66.841782,156.128586 66.982208,156.006363 67.475616,155.904053 
	C68.303291,155.912689 68.777985,155.901428 69.589737,155.965317 
	C79.021217,160.970963 88.619713,163.934464 99.248543,163.956207 
	C99.487839,161.437881 99.686981,159.342133 100.408287,157.082718 
	C101.491425,159.192093 102.052399,161.465134 102.680336,164.009476 
	C112.279785,163.926666 121.339096,161.288757 130.140808,156.901947 
	C130.350296,156.717407 130.479401,156.576096 130.449890,156.523148 
	C130.344238,156.333511 130.184860,156.173798 129.574188,156.003922 
	C119.369728,156.499756 109.636887,156.994431 99.760315,156.958633 
	C99.440063,152.732803 99.263542,149.037445 99.609604,145.288177 
	C100.830612,145.265427 101.529045,145.296585 102.182785,145.668152 
	C102.138077,148.432327 102.138077,150.856094 102.138077,153.336136 
	C113.842018,153.336136 125.076279,153.336136 136.773132,153.676163 
	C137.550781,154.233505 137.865845,154.450821 138.180908,154.668137 
	C130.068008,160.936600 120.741676,164.251602 110.169930,165.736984 
	C109.054413,165.712036 108.515808,165.889587 107.977196,166.067154 
z"/>
<path fill="#D5E0E4" opacity="1.000000" stroke="none" 
	d="
M102.014412,135.670288 
	C101.219421,134.653275 100.424438,133.636246 100.385567,132.154709 
	C101.485069,131.766815 101.828461,131.843445 102.626953,131.974976 
	C119.401711,132.048584 135.722290,132.149857 152.039642,131.965363 
	C153.778015,131.945694 155.497528,130.255234 157.672302,129.649719 
	C158.421326,130.159027 158.723816,130.358475 159.026306,130.557938 
	C154.934189,136.296021 150.842072,142.034103 146.188065,147.804718 
	C145.131561,147.567917 144.636932,147.298584 144.238495,146.805817 
	C144.456039,146.112961 144.577393,145.643539 144.949585,144.972870 
	C145.466248,144.201431 145.732071,143.631226 146.335724,142.959641 
	C148.974808,140.554459 151.276031,138.250626 153.577271,135.946808 
	C136.238800,134.859482 119.718369,134.853851 103.198051,134.893372 
	C102.802887,134.894318 102.408936,135.400024 102.014412,135.670288 
z"/>
<path fill="#C8D4DB" opacity="1.000000" stroke="none" 
	d="
M67.083557,45.868118 
	C67.032158,47.034061 66.915749,48.541271 66.135475,49.071423 
	C54.567001,56.931538 46.455887,67.441895 41.000713,80.751709 
	C39.925392,80.990112 39.436264,80.985382 38.947132,80.980652 
	C43.631912,65.637421 53.135548,54.092098 67.083557,45.868118 
z"/>
<path fill="#0F2231" opacity="1.000000" stroke="none" 
	d="
M166.164597,110.983269 
	C165.863907,108.218216 166.004288,105.457504 166.576721,102.284752 
	C167.672913,99.914955 168.337067,97.957199 169.001755,95.750656 
	C169.002274,95.501862 169.003052,95.004272 169.003052,95.004272 
	C170.017593,94.275070 171.032120,93.545860 172.399338,92.563156 
	C172.588501,93.409966 172.967743,94.155846 172.871719,94.834473 
	C172.307007,98.826065 171.300613,102.785141 171.097031,106.788445 
	C170.931198,110.049362 169.726913,111.317108 166.164597,110.983269 
z"/>
<path fill="#CDD6DD" opacity="1.000000" stroke="none" 
	d="
M49.118729,137.324768 
	C51.184029,139.165909 53.249332,141.007050 55.710072,143.257263 
	C56.487835,144.155563 56.870155,144.644760 57.243065,145.466339 
	C59.617203,148.129471 62.000748,150.460236 64.096344,153.000290 
	C63.517456,153.581711 63.226513,153.953827 62.935562,154.325928 
	C57.932800,149.463837 52.930042,144.601730 48.129814,139.169403 
	C48.594479,138.174362 48.856606,137.749573 49.118729,137.324768 
z"/>
<path fill="#D5E0E4" opacity="1.000000" stroke="none" 
	d="
M38.745575,81.291794 
	C39.436264,80.985382 39.925392,80.990112 40.780472,81.021667 
	C40.258076,85.140961 39.369732,89.233437 38.060501,93.589981 
	C37.145012,93.583290 36.650402,93.312531 36.155788,93.041779 
	C36.951862,89.228828 37.747940,85.415886 38.745575,81.291794 
z"/>
<path fill="#0D1E2C" opacity="1.000000" stroke="none" 
	d="
M168.998230,94.601913 
	C169.003052,95.004272 169.002274,95.501862 168.657043,95.918915 
	C167.625458,96.678764 166.939102,97.021561 166.252762,97.364365 
	C166.046600,95.835518 165.840424,94.306664 165.569397,92.396065 
	C165.393341,91.301743 165.282166,90.589180 165.223022,89.519562 
	C166.514511,90.841530 167.753952,92.520546 168.998230,94.601913 
z"/>
<path fill="#D5E0E4" opacity="1.000000" stroke="none" 
	d="
M63.095451,154.573090 
	C63.226513,153.953827 63.517456,153.581711 64.371498,153.067841 
	C65.678513,153.491714 66.422440,154.057343 67.145554,154.937897 
	C67.124039,155.463287 67.123337,155.673706 67.122635,155.884140 
	C66.982208,156.006363 66.841782,156.128586 66.487885,156.430817 
	C65.268051,156.013977 64.261696,155.417114 63.095451,154.573090 
z"/>
<path fill="#CDD6DD" opacity="1.000000" stroke="none" 
	d="
M158.835739,124.077011 
	C159.607681,124.054321 160.379639,124.031624 161.537613,124.002220 
	C161.481812,125.259285 161.039978,126.523064 160.277679,127.693703 
	C159.575150,127.061859 159.193069,126.523155 158.806244,125.666191 
	C158.812912,124.924286 158.824326,124.500648 158.835739,124.077011 
z"/>
<path fill="#CCD4DA" opacity="1.000000" stroke="none" 
	d="
M144.142319,147.029236 
	C144.636932,147.298584 145.131561,147.567917 145.888672,147.939865 
	C145.161514,149.051773 144.171844,150.061081 142.628403,150.712509 
	C141.898758,150.042313 141.722900,149.730011 141.698776,149.160889 
	C142.614456,148.279129 143.378387,147.654190 144.142319,147.029236 
z"/>
<path fill="#C8D4DB" opacity="1.000000" stroke="none" 
	d="
M36.023514,93.264999 
	C36.650402,93.312531 37.145012,93.583290 37.905327,93.948792 
	C38.189266,94.484245 38.207497,94.924965 38.118534,95.681824 
	C37.539921,95.994926 37.068501,95.991898 36.243988,96.009247 
	C35.891010,95.182487 35.891125,94.335358 36.023514,93.264999 
z"/>
<path fill="#D5E0E4" opacity="1.000000" stroke="none" 
	d="
M44.377968,131.557129 
	C45.913929,132.872650 46.869400,134.276031 47.388817,135.852036 
	C45.901001,134.564774 44.849239,133.104874 44.377968,131.557129 
z"/>
<path fill="#D5E0E4" opacity="1.000000" stroke="none" 
	d="
M158.811005,125.984467 
	C159.193069,126.523155 159.575150,127.061859 160.038696,127.930695 
	C159.882339,128.905106 159.644485,129.549362 159.216461,130.375793 
	C158.723816,130.358475 158.421326,130.159027 157.726425,129.340454 
	C157.826355,127.809067 158.318680,126.896767 158.811005,125.984467 
z"/>
<path fill="#D5E0E4" opacity="1.000000" stroke="none" 
	d="
M141.143341,152.404785 
	C140.354996,153.091568 139.566635,153.778336 138.479599,154.566620 
	C137.865845,154.450821 137.550781,154.233505 136.995422,153.465790 
	C137.599701,152.355896 138.444260,151.796402 139.741791,151.545761 
	C140.510971,152.038010 140.827164,152.221390 141.143341,152.404785 
z"/>
<path fill="#C8D4DB" opacity="1.000000" stroke="none" 
	d="
M70.129425,46.377674 
	C69.060051,46.535286 67.990685,46.692898 67.217484,46.403355 
	C68.107857,45.341904 68.702065,44.727608 69.652847,44.452213 
	C70.049431,45.319969 70.089432,45.848824 70.129425,46.377674 
z"/>
<path fill="#CCD4DA" opacity="1.000000" stroke="none" 
	d="
M108.167633,166.156982 
	C108.515808,165.889587 109.054413,165.712036 109.772278,165.694489 
	C109.420380,165.985275 108.889229,166.116043 108.167633,166.156982 
z"/>
<path fill="#D3DDE3" opacity="1.000000" stroke="none" 
	d="
M70.506630,46.272331 
	C70.089432,45.848824 70.049431,45.319969 70.004227,44.393234 
	C70.593933,43.991657 71.188835,43.987965 71.641685,44.468414 
	C71.294365,45.357368 71.089096,45.762180 70.506630,46.272331 
z"/>
<path fill="#D5E0E4" opacity="1.000000" stroke="none" 
	d="
M46.525776,136.261536 
	C47.632664,136.549332 48.308907,137.067551 48.466793,137.797226 
	C47.330666,137.503113 46.712898,136.997543 46.525776,136.261536 
z"/>
<path fill="#D5E0E4" opacity="1.000000" stroke="none" 
	d="
M48.677650,137.253387 
	C48.856606,137.749573 48.594479,138.174362 48.037045,138.831726 
	C47.620705,138.859192 47.499672,138.654083 47.668423,138.240097 
	C48.050991,137.748138 48.143776,137.465088 48.677650,137.253387 
z"/>
<path fill="#D5E0E4" opacity="1.000000" stroke="none" 
	d="
M142.295410,150.844818 
	C142.274155,151.607193 142.032089,151.879364 141.323700,151.727097 
	C140.694168,150.990982 140.530960,150.679291 140.519501,150.158875 
	C140.963196,149.772644 141.255112,149.595169 141.547043,149.417694 
	C141.722900,149.730011 141.898758,150.042313 142.295410,150.844818 
z"/>
<path fill="#D5E0E4" opacity="1.000000" stroke="none" 
	d="
M141.052765,151.792892 
	C141.248154,152.283127 141.158890,152.340317 141.151123,152.372559 
	C140.827164,152.221390 140.510971,152.038010 139.885803,151.359528 
	C139.798172,150.631531 140.061829,150.465912 140.367752,150.367615 
	C140.530960,150.679291 140.694168,150.990982 141.052765,151.792892 
z"/>
<path fill="#E2E6E9" opacity="1.000000" stroke="none" 
	d="
M80.811340,88.187485 
	C70.192604,90.705299 65.083412,86.724411 65.021713,76.284676 
	C64.992363,71.317810 65.016670,66.350624 65.016670,61.097801 
	C66.979950,61.097801 68.529716,61.097801 70.558907,61.097801 
	C70.558907,66.654411 70.562622,71.951271 70.557678,77.248123 
	C70.554100,81.083389 71.249290,84.396278 76.145058,84.301987 
	C80.746964,84.213364 81.371391,81.021217 81.373062,77.402924 
	C81.375519,72.100761 81.373703,66.798599 81.373703,61.154037 
	C83.321701,61.154037 84.853004,61.154037 86.707382,61.154037 
	C86.707382,67.669800 87.261078,74.031815 86.456993,80.217323 
	C86.094078,83.009033 83.027161,85.449242 80.811340,88.187485 
z"/>
<path fill="#132432" opacity="1.000000" stroke="none" 
	d="
M102.018608,135.621338 
	C102.408936,135.400024 102.802887,134.894318 103.198051,134.893372 
	C119.718369,134.853851 136.238800,134.859482 153.577271,135.946808 
	C151.276031,138.250626 148.974808,140.554459 145.873016,142.880066 
	C131.044617,142.935638 117.016762,142.969406 102.801147,142.854431 
	C102.369453,142.497650 102.148766,142.267334 101.993881,141.549789 
	C102.043190,139.216599 102.049957,137.348373 102.056725,135.480133 
	C102.056725,135.480133 102.022804,135.572372 102.018608,135.621338 
z"/>
<path fill="#E0E7EE" opacity="1.000000" stroke="none" 
	d="
M57.252476,145.133957 
	C56.870155,144.644760 56.487835,144.155563 56.055378,143.353012 
	C70.029732,142.988876 84.054222,142.938095 98.575157,143.286163 
	C99.068275,144.221573 99.064941,144.758118 98.589111,145.278778 
	C84.495239,145.219925 70.873856,145.176941 57.252476,145.133957 
z"/>
<path fill="#D5E0E4" opacity="1.000000" stroke="none" 
	d="
M100.134979,131.279175 
	C99.912598,129.194824 99.690224,127.110481 99.857147,124.560387 
	C100.817154,124.048340 101.387856,124.002029 101.958565,123.955719 
	C101.958565,123.955719 102.061844,124.057167 102.087509,124.534004 
	C102.041229,127.005432 101.969284,129.000031 101.457062,131.067657 
	C100.722847,131.186874 100.428917,131.233017 100.134979,131.279175 
z"/>
<path fill="#D5E0E4" opacity="1.000000" stroke="none" 
	d="
M101.700073,134.938232 
	C102.049957,137.348373 102.043190,139.216599 101.668701,141.696411 
	C100.609406,142.459366 99.917847,142.610764 99.226280,142.762146 
	C99.931999,139.973541 100.637711,137.184921 101.700073,134.938232 
z"/>
<path fill="#CCD4DA" opacity="1.000000" stroke="none" 
	d="
M99.149292,142.748672 
	C99.917847,142.610764 100.609406,142.459366 101.626160,142.161362 
	C102.148766,142.267334 102.369453,142.497650 102.581825,143.087433 
	C102.440536,144.079620 102.330826,144.690063 102.201874,145.309937 
	C102.182625,145.319336 102.227486,145.327759 102.227486,145.327759 
	C101.529045,145.296585 100.830612,145.265427 99.620682,145.266510 
	C99.109192,145.298767 99.061607,145.294662 99.061607,145.294662 
	C99.064941,144.758118 99.068275,144.221573 99.044937,143.283447 
	C99.018272,142.881866 99.072311,142.735199 99.149292,142.748672 
z"/>
<path fill="#CCD4DA" opacity="1.000000" stroke="none" 
	d="
M102.014053,123.559341 
	C101.387856,124.002029 100.817154,124.048340 99.821564,124.157310 
	C99.396690,124.219978 99.109863,124.256500 99.053513,124.123329 
	C98.978790,123.450493 98.960419,122.910820 98.935547,122.019470 
	C98.929054,121.667793 98.834709,121.586830 98.834709,121.586830 
	C99.642456,121.632576 100.450195,121.678322 101.792953,121.803940 
	C102.327965,121.883804 102.487984,121.619759 102.487984,121.619759 
	C102.348503,122.134163 102.209023,122.648560 102.014053,123.559341 
z"/>
<path fill="#CDD6DD" opacity="1.000000" stroke="none" 
	d="
M100.159103,131.314117 
	C100.428917,131.233017 100.722847,131.186874 101.551834,131.291260 
	C102.086884,131.441818 102.171844,131.920059 102.171844,131.920059 
	C101.828461,131.843445 101.485069,131.766815 100.629333,131.546204 
	C100.116982,131.402237 100.183220,131.349075 100.159103,131.314117 
z"/>
<path fill="#102231" opacity="1.000000" stroke="none" 
	d="
M101.956909,97.341339 
	C101.879410,77.743179 101.879410,58.485149 101.879410,39.302036 
	C128.804810,36.443737 156.464279,60.340248 162.960815,91.647568 
	C163.116898,94.457336 163.116898,96.914818 163.116898,99.692970 
	C162.109436,99.797722 161.007721,100.010757 159.905746,100.012154 
	C142.009140,100.034775 124.112366,100.060471 106.216087,99.981766 
	C104.598351,99.974655 101.844101,101.282661 101.956909,97.341339 
M130.357635,87.523781 
	C132.360901,87.832893 134.364166,88.142014 136.488708,88.469833 
	C136.488708,83.026382 136.488708,78.301292 136.488708,73.379684 
	C132.848770,73.379684 129.583130,73.379684 126.060265,73.379684 
	C126.060265,74.929222 126.060265,76.305977 126.060265,77.625961 
	C127.975502,77.920715 129.535263,78.160767 131.061508,78.395653 
	C131.407471,82.757492 129.157028,84.269646 125.667137,84.282509 
	C122.179382,84.295372 119.932198,82.557434 119.767830,78.898125 
	C119.633461,75.906372 119.318680,72.809296 119.930183,69.939232 
	C120.307510,68.168221 122.023788,65.807587 123.587349,65.389793 
	C125.463295,64.888519 127.894684,65.966827 129.940033,66.744087 
	C131.845917,67.468346 133.560928,68.694939 136.391129,70.276703 
	C134.882629,63.046463 132.290314,60.688522 126.988777,60.227234 
	C121.504494,59.750038 116.661339,61.984253 115.340668,66.801453 
	C114.232010,70.845337 113.787727,75.403542 114.422119,79.522591 
	C115.665466,87.595505 121.753784,90.650009 130.357635,87.523781 
z"/>
<path fill="#132534" opacity="1.000000" stroke="none" 
	d="
M99.039040,121.188675 
	C98.834709,121.586830 98.929054,121.667793 98.897278,121.616257 
	C81.217308,121.530312 63.567825,121.373436 45.921947,121.559326 
	C42.153049,121.599045 40.467499,120.374969 39.948879,116.797310 
	C39.309544,112.386932 38.458496,108.007240 37.610149,103.100754 
	C58.450756,103.100754 78.649307,103.100754 99.243370,103.100754 
	C99.243370,108.966896 99.243370,114.878708 99.039040,121.188675 
z"/>
<path fill="#223340" opacity="1.000000" stroke="none" 
	d="
M102.397156,121.742958 
	C102.346886,119.091934 102.227425,116.581764 102.571457,113.673080 
	C122.357231,113.185165 141.679520,113.095749 161.178497,113.101822 
	C161.355179,113.197311 161.751816,113.133736 161.751816,113.133736 
	C162.184769,120.490196 161.316895,121.523392 154.631210,121.527702 
	C137.538467,121.538734 120.445740,121.540100 102.920494,121.582550 
	C102.487984,121.619759 102.327965,121.883804 102.397156,121.742958 
z"/>
<path fill="#132533" opacity="1.000000" stroke="none" 
	d="
M101.952026,110.014633 
	C101.952026,107.724823 101.952026,105.435013 101.952026,102.991425 
	C122.695168,102.991425 142.919769,102.991425 163.585236,102.991425 
	C163.352921,105.472015 163.153671,107.599518 162.587448,110.216690 
	C161.811890,110.822617 161.403320,110.938873 160.531891,110.978668 
	C141.040207,110.946899 122.011368,110.991600 102.982536,111.036293 
	C102.982536,111.036293 103.010567,111.022873 102.813675,110.862747 
	C102.378120,110.489799 102.156532,110.260468 101.952026,110.014633 
z"/>
<path fill="#142532" opacity="1.000000" stroke="none" 
	d="
M102.626953,131.974976 
	C102.171844,131.920059 102.086884,131.441818 101.992111,131.218216 
	C101.969284,129.000031 102.041229,127.005432 102.139359,124.584511 
	C120.750298,124.117188 139.335052,124.076187 158.377777,124.056107 
	C158.824326,124.500648 158.812912,124.924286 158.806244,125.666199 
	C158.318680,126.896767 157.826355,127.809067 157.279907,129.030609 
	C155.497528,130.255234 153.778015,131.945694 152.039642,131.965363 
	C135.722290,132.149857 119.401711,132.048584 102.626953,131.974976 
z"/>
<path fill="#E1E6EB" opacity="1.000000" stroke="none" 
	d="
M102.853378,111.324799 
	C122.011368,110.991600 141.040207,110.946899 160.538055,111.303833 
	C161.005325,112.139084 161.003555,112.572708 161.001801,113.006332 
	C141.679520,113.095749 122.357231,113.185165 102.578003,113.340118 
	C102.322128,112.808212 102.523178,112.210762 102.853378,111.324799 
z"/>
<path fill="#0C1F2D" opacity="1.000000" stroke="none" 
	d="
M166.178741,97.737701 
	C166.939102,97.021561 167.625458,96.678764 168.656525,96.167709 
	C168.337067,97.957199 167.672913,99.914955 166.671631,101.889961 
	C166.257919,100.641830 166.181305,99.376434 166.178741,97.737701 
z"/>
<path fill="#D3DDE3" opacity="1.000000" stroke="none" 
	d="
M161.178497,113.101822 
	C161.003555,112.572708 161.005325,112.139084 161.000916,111.380295 
	C161.403320,110.938873 161.811890,110.822617 162.536316,110.658981 
	C162.654053,111.284157 162.455933,111.956703 162.004807,112.881493 
	C161.751816,113.133736 161.355179,113.197311 161.178497,113.101822 
z"/>
<path fill="#CDD6DD" opacity="1.000000" stroke="none" 
	d="
M101.871704,110.185150 
	C102.156532,110.260468 102.378120,110.489799 102.805588,110.849503 
	C102.593384,110.782799 102.192390,110.569237 101.871704,110.185150 
z"/>
<path fill="#182937" opacity="1.000000" stroke="none" 
	d="
M98.589111,145.278778 
	C99.061607,145.294662 99.109192,145.298767 99.098114,145.320435 
	C99.263542,149.037445 99.440063,152.732803 99.796906,156.945068 
	C99.977226,157.461975 99.886124,157.246368 99.886124,157.246368 
	C99.686981,159.342133 99.487839,161.437881 99.248543,163.956207 
	C88.619713,163.934464 79.021217,160.970963 69.404739,155.708649 
	C68.310577,155.125549 67.738464,154.874252 67.166359,154.622955 
	C66.422440,154.057343 65.678513,153.491714 64.659439,152.858551 
	C62.000748,150.460236 59.617203,148.129471 57.243065,145.466339 
	C70.873856,145.176941 84.495239,145.219925 98.589111,145.278778 
z"/>
<path fill="#22323F" opacity="1.000000" stroke="none" 
	d="
M140.519501,150.158875 
	C140.061829,150.465912 139.798172,150.631531 139.432800,151.050690 
	C138.444260,151.796402 137.599701,152.355896 136.532837,153.125763 
	C125.076279,153.336136 113.842018,153.336136 102.138077,153.336136 
	C102.138077,150.856094 102.138077,148.432327 102.182785,145.668152 
	C102.227486,145.327759 102.182625,145.319336 102.654709,145.289124 
	C116.984116,145.230652 130.841431,145.202377 144.698746,145.174103 
	C144.577393,145.643539 144.456039,146.112961 144.238495,146.805817 
	C143.378387,147.654190 142.614456,148.279129 141.698776,149.160889 
	C141.255112,149.595169 140.963196,149.772644 140.519501,150.158875 
z"/>
<path fill="#1C2C39" opacity="1.000000" stroke="none" 
	d="
M100.408287,157.082718 
	C99.886124,157.246368 99.977226,157.461975 99.940636,157.475555 
	C109.636887,156.994431 119.369728,156.499756 129.610474,156.252533 
	C130.074814,156.661896 130.031235,156.823792 129.987656,156.985687 
	C121.339096,161.288757 112.279785,163.926666 102.680336,164.009476 
	C102.052399,161.465134 101.491425,159.192093 100.408287,157.082718 
z"/>
<path fill="#CCD4DA" opacity="1.000000" stroke="none" 
	d="
M67.145554,154.937897 
	C67.738464,154.874252 68.310577,155.125549 69.067688,155.633499 
	C68.777985,155.901428 68.303291,155.912689 67.475616,155.904053 
	C67.123337,155.673706 67.124039,155.463287 67.145554,154.937897 
z"/>
<path fill="#CCD4DA" opacity="1.000000" stroke="none" 
	d="
M130.140808,156.901947 
	C130.031235,156.823792 130.074814,156.661896 130.082092,156.251404 
	C130.184860,156.173798 130.344238,156.333511 130.449890,156.523148 
	C130.479401,156.576096 130.350296,156.717407 130.140808,156.901947 
z"/>
<path fill="#E0E8EB" opacity="1.000000" stroke="none" 
	d="
M144.949585,144.972870 
	C130.841431,145.202377 116.984116,145.230652 102.673958,145.279724 
	C102.330826,144.690063 102.440536,144.079620 102.769577,143.236176 
	C117.016762,142.969406 131.044617,142.935638 145.535187,142.981445 
	C145.732071,143.631226 145.466248,144.201431 144.949585,144.972870 
z"/>
<path fill="#E3E8EA" opacity="1.000000" stroke="none" 
	d="
M129.989227,87.740044 
	C121.753784,90.650009 115.665466,87.595505 114.422119,79.522591 
	C113.787727,75.403542 114.232010,70.845337 115.340668,66.801453 
	C116.661339,61.984253 121.504494,59.750038 126.988777,60.227234 
	C132.290314,60.688522 134.882629,63.046463 136.391129,70.276703 
	C133.560928,68.694939 131.845917,67.468346 129.940033,66.744087 
	C127.894684,65.966827 125.463295,64.888519 123.587349,65.389793 
	C122.023788,65.807587 120.307510,68.168221 119.930183,69.939232 
	C119.318680,72.809296 119.633461,75.906372 119.767830,78.898125 
	C119.932198,82.557434 122.179382,84.295372 125.667137,84.282509 
	C129.157028,84.269646 131.407471,82.757492 131.061508,78.395653 
	C129.535263,78.160767 127.975502,77.920715 126.060265,77.625961 
	C126.060265,76.305977 126.060265,74.929222 126.060265,73.379684 
	C129.583130,73.379684 132.848770,73.379684 136.488708,73.379684 
	C136.488708,78.301292 136.488708,83.026382 136.488708,88.469833 
	C134.364166,88.142014 132.360901,87.832893 129.989227,87.740044 
z"/>
</svg>