<svg version="1.1" id="Layer_1" xmlns="http://www.w3.org/2000/svg" xmlns:xlink="http://www.w3.org/1999/xlink" x="0px" y="0px"
	 width="100%" viewBox="0 0 512 512" enable-background="new 0 0 512 512" xml:space="preserve">
<path fill="#333E48" opacity="1.000000" stroke="none" 
	d="
M453.000000,513.000000 
	C322.644653,513.000000 192.289307,513.000000 61.365311,512.664307 
	C54.385551,509.256805 53.022869,503.501038 53.021744,497.213623 
	C52.993134,337.170471 53.009140,177.127289 52.965000,17.084135 
	C52.963120,10.262110 55.140827,4.773445 61.000000,1.000000 
	C164.355347,1.000000 267.710693,1.000000 371.620239,1.335941 
	C374.417389,3.581699 376.802460,5.349031 378.881714,7.422997 
	C404.237213,32.713799 429.467896,58.130585 454.947113,83.295807 
	C459.294037,87.589134 461.012604,92.336098 461.011963,98.144478 
	C460.997437,231.067047 460.988831,363.989624 461.035126,496.912201 
	C461.037506,503.735077 458.860291,509.225525 453.000000,513.000000 
M436.000153,141.500000 
	C436.000153,129.914032 436.000153,118.328049 436.000153,106.385956 
	C433.501556,106.385956 431.692871,106.385963 429.884186,106.385956 
	C410.052368,106.385895 390.220490,106.405632 370.388702,106.378174 
	C358.877899,106.362244 354.828583,102.260841 354.807556,90.700371 
	C354.792816,82.581215 354.804718,74.462013 354.804718,66.252373 
	C262.229980,66.252373 170.209717,66.252373 78.408218,66.252373 
	C78.408218,207.356812 78.408218,348.069794 78.408218,488.647583 
	C197.752625,488.647583 316.679504,488.647583 436.000153,488.647583 
	C436.000153,373.077942 436.000153,257.788971 436.000153,141.500000 
M322.500000,25.025644 
	C244.217499,25.025631 165.934967,25.007294 87.652481,25.046381 
	C76.568230,25.051916 78.107140,23.622345 78.004990,34.464756 
	C77.934914,41.902885 77.994514,41.906025 85.670418,41.906082 
	C171.448044,41.906708 257.225677,41.906479 343.003296,41.906483 
	C355.270874,41.906483 355.120758,41.907787 355.014801,29.703051 
	C354.981323,25.846985 353.549011,24.885820 349.981415,24.963612 
	C341.158020,25.156008 332.327606,25.026108 322.500000,25.025644 
M406.058380,69.441704 
	C397.315338,60.672672 388.572296,51.903641 379.224640,42.528221 
	C379.224640,56.376213 379.224640,69.092209 379.224640,81.820473 
	C392.207458,81.820473 404.871338,81.820473 418.991974,81.820473 
	C414.213776,77.255653 410.385956,73.598785 406.058380,69.441704 
z"/>
<path fill="#FFFFFF" opacity="1.000000" stroke="none" 
	d="
M453.468658,513.000000 
	C458.860291,509.225525 461.037506,503.735077 461.035126,496.912201 
	C460.988831,363.989624 460.997437,231.067047 461.011963,98.144478 
	C461.012604,92.336098 459.294037,87.589134 454.947113,83.295807 
	C429.467896,58.130585 404.237213,32.713799 378.881714,7.422997 
	C376.802460,5.349031 374.417389,3.581699 372.087219,1.335941 
	C418.971161,1.000000 465.942291,1.000000 512.950562,1.000000 
	C512.950562,171.666672 512.950562,342.333344 512.950562,513.000000 
	C493.246490,513.000000 473.591888,513.000000 453.468658,513.000000 
z"/>
<path fill="#FFFFFF" opacity="1.000000" stroke="none" 
	d="
M60.531342,1.000000 
	C55.140827,4.773445 52.963120,10.262110 52.965000,17.084135 
	C53.009140,177.127289 52.993134,337.170471 53.021744,497.213623 
	C53.022869,503.501038 54.385551,509.256805 60.898323,512.664307 
	C41.013851,513.000000 21.027704,513.000000 1.046649,513.000000 
	C1.051742,342.333313 1.051742,171.666656 1.051742,1.000000 
	C20.756550,1.000000 40.409615,1.000000 60.531342,1.000000 
z"/>
<path fill="#E8E8E8" opacity="1.000000" stroke="none" 
	d="
M436.000153,142.000000 
	C436.000153,257.788971 436.000153,373.077942 436.000153,488.647583 
	C316.679504,488.647583 197.752625,488.647583 78.408218,488.647583 
	C78.408218,348.069794 78.408218,207.356812 78.408218,66.252373 
	C170.209717,66.252373 262.229980,66.252373 354.804718,66.252373 
	C354.804718,74.462013 354.792816,82.581215 354.807556,90.700371 
	C354.828583,102.260841 358.877899,106.362244 370.388702,106.378174 
	C390.220490,106.405632 410.052368,106.385895 429.884186,106.385956 
	C431.692871,106.385963 433.501556,106.385956 436.000153,106.385956 
	C436.000153,118.328049 436.000153,129.914032 436.000153,142.000000 
M276.500183,258.009918 
	C293.829132,258.009796 311.161316,257.816681 328.485504,258.103638 
	C335.507965,258.219940 340.180054,255.180679 343.744843,249.591644 
	C349.893982,239.950775 351.593536,229.081146 351.641876,218.034195 
	C351.693176,206.302338 350.306580,194.576416 343.117035,184.735779 
	C340.814880,181.584717 336.992828,177.815964 333.588074,177.519073 
	C322.912415,176.588104 312.104279,177.176743 300.998566,177.176743 
	C300.998566,182.883652 301.011139,188.188232 300.996216,193.492752 
	C300.949310,210.167938 291.328217,219.765427 274.534668,219.823654 
	C262.037872,219.866989 249.540756,219.809692 237.043884,219.840012 
	C222.571716,219.875122 215.177109,227.230164 215.143509,241.650970 
	C215.107773,256.980469 215.600113,272.329132 214.974625,287.633179 
	C214.542847,298.197266 219.607773,304.189514 228.477219,308.005005 
	C243.092285,314.292145 258.280762,314.811188 273.504730,311.185577 
	C292.423615,306.680054 296.293274,301.394806 296.292999,282.309601 
	C296.292938,277.144196 296.320068,271.978516 296.270355,266.813568 
	C296.258179,265.551605 295.992126,264.292053 295.860413,263.179901 
	C295.148407,262.987823 294.834015,262.829742 294.519073,262.828674 
	C283.023041,262.789886 271.526733,262.716034 260.031067,262.770782 
	C256.726471,262.786530 254.680786,262.191437 256.723877,258.009918 
	C262.876404,258.009918 269.188416,258.009918 276.500183,258.009918 
M242.530487,215.073349 
	C253.357819,215.072952 264.185242,215.099075 275.012451,215.065552 
	C288.874878,215.022644 296.229492,207.708221 296.283936,193.795822 
	C296.347778,177.471649 296.095551,161.143311 296.394623,144.824356 
	C296.522736,137.834061 293.618225,133.099899 287.987701,129.546432 
	C278.184784,123.359688 267.229706,121.683426 255.965775,121.680412 
	C244.360962,121.677307 232.831573,123.005249 223.187088,130.097626 
	C219.839218,132.559601 216.090866,136.799622 215.720901,140.543320 
	C214.700317,150.870941 215.367996,161.365402 215.367996,172.281372 
	C229.024399,172.281372 242.282303,172.281372 255.588226,172.281372 
	C255.588226,174.024155 255.588226,175.269455 255.588226,176.926636 
	C253.515182,176.926636 251.711945,176.926636 249.908707,176.926636 
	C227.754120,176.926651 205.597214,177.107758 183.446304,176.822815 
	C176.249664,176.730240 170.721802,179.341080 167.968460,185.559982 
	C164.781723,192.757919 161.764191,200.369125 160.673233,208.083740 
	C158.615524,222.634827 159.836044,237.169525 168.277237,249.870132 
	C170.493011,253.203949 174.582184,257.083984 178.118378,257.413361 
	C188.766525,258.405182 199.566116,257.771027 210.730499,257.771027 
	C210.730499,251.003769 210.493652,244.688477 210.779480,238.396927 
	C211.387711,225.008179 220.672348,215.830399 234.049606,215.121780 
	C236.541656,214.989792 239.045670,215.083710 242.530487,215.073349 
M194.027725,404.500000 
	C194.027725,420.779022 194.027725,437.058014 194.027725,453.480835 
	C201.266632,453.480835 207.977570,453.480835 215.168015,453.480835 
	C215.168015,444.881042 215.168015,436.634521 215.168015,428.647278 
	C220.936707,428.006836 226.305588,427.903870 231.434830,426.742523 
	C243.485657,424.013947 250.202301,414.267792 250.023026,400.644745 
	C249.860199,388.271423 243.617905,379.655609 231.224960,377.969452 
	C219.137695,376.324829 206.780090,376.667175 194.027725,376.114990 
	C194.027725,385.914917 194.027725,394.707458 194.027725,404.500000 
M292.091644,400.532928 
	C291.429321,401.737305 290.767029,402.941681 289.797729,404.704285 
	C285.729767,395.954315 282.079132,387.949554 278.255890,380.028137 
	C277.617889,378.706238 276.270874,376.819641 275.181000,376.770935 
	C268.439331,376.469666 261.677521,376.619476 254.244614,376.619476 
	C255.395325,378.893585 256.107269,380.360535 256.870758,381.800110 
	C263.333862,393.986267 270.028290,406.057648 276.144165,418.415405 
	C278.039215,422.244507 278.990692,426.805939 279.279480,431.105621 
	C279.777283,438.517273 279.417328,445.986542 279.417328,453.629333 
	C286.662903,453.629333 293.254761,453.629333 300.465057,453.629333 
	C300.465057,445.168701 300.245972,436.876953 300.576080,428.607178 
	C300.702728,425.434235 301.529327,422.024689 302.985809,419.214722 
	C309.638733,406.379242 316.636963,393.722931 323.483521,380.987366 
	C324.137451,379.770996 324.599884,378.451630 325.406921,376.590332 
	C318.758789,376.590332 312.797180,376.730774 306.847290,376.528229 
	C304.070953,376.433746 302.735046,377.448395 301.647125,379.960419 
	C298.743561,386.664825 295.518158,393.229858 292.091644,400.532928 
z"/>
<path fill="#014A92" opacity="1.000000" stroke="none" 
	d="
M323.000000,25.025684 
	C332.327606,25.026108 341.158020,25.156008 349.981415,24.963612 
	C353.549011,24.885820 354.981323,25.846985 355.014801,29.703051 
	C355.120758,41.907787 355.270874,41.906483 343.003296,41.906483 
	C257.225677,41.906479 171.448044,41.906708 85.670418,41.906082 
	C77.994514,41.906025 77.934914,41.902885 78.004990,34.464756 
	C78.107140,23.622345 76.568230,25.051916 87.652481,25.046381 
	C165.934967,25.007294 244.217499,25.025631 323.000000,25.025684 
z"/>
<path fill="#D0D3D3" opacity="1.000000" stroke="none" 
	d="
M406.308258,69.691818 
	C410.385956,73.598785 414.213776,77.255653 418.991974,81.820473 
	C404.871338,81.820473 392.207458,81.820473 379.224640,81.820473 
	C379.224640,69.092209 379.224640,56.376213 379.224640,42.528221 
	C388.572296,51.903641 397.315338,60.672672 406.308258,69.691818 
z"/>
<path fill="#FB9201" opacity="1.000000" stroke="none" 
	d="
M276.000305,258.009918 
	C269.188416,258.009918 262.876404,258.009918 256.723877,258.009918 
	C254.680786,262.191437 256.726471,262.786530 260.031067,262.770782 
	C271.526733,262.716034 283.023041,262.789886 294.519073,262.828674 
	C294.834015,262.829742 295.148407,262.987823 295.860413,263.179901 
	C295.992126,264.292053 296.258179,265.551605 296.270355,266.813568 
	C296.320068,271.978516 296.292938,277.144196 296.292999,282.309601 
	C296.293274,301.394806 292.423615,306.680054 273.504730,311.185577 
	C258.280762,314.811188 243.092285,314.292145 228.477219,308.005005 
	C219.607773,304.189514 214.542847,298.197266 214.974625,287.633179 
	C215.600113,272.329132 215.107773,256.980469 215.143509,241.650970 
	C215.177109,227.230164 222.571716,219.875122 237.043884,219.840012 
	C249.540756,219.809692 262.037872,219.866989 274.534668,219.823654 
	C291.328217,219.765427 300.949310,210.167938 300.996216,193.492752 
	C301.011139,188.188232 300.998566,182.883652 300.998566,177.176743 
	C312.104279,177.176743 322.912415,176.588104 333.588074,177.519073 
	C336.992828,177.815964 340.814880,181.584717 343.117035,184.735779 
	C350.306580,194.576416 351.693176,206.302338 351.641876,218.034195 
	C351.593536,229.081146 349.893982,239.950775 343.744843,249.591644 
	C340.180054,255.180679 335.507965,258.219940 328.485504,258.103638 
	C311.161316,257.816681 293.829132,258.009796 276.000305,258.009918 
M278.323303,280.227570 
	C272.503204,281.504974 270.009338,285.984192 273.411591,289.516846 
	C274.680115,290.833984 277.472687,291.918335 279.015747,291.413544 
	C280.815552,290.824799 282.769440,288.590424 283.292603,286.693878 
	C284.154724,283.568634 282.119385,281.391418 278.323303,280.227570 
z"/>
<path fill="#014B94" opacity="1.000000" stroke="none" 
	d="
M242.037323,215.073364 
	C239.045670,215.083710 236.541656,214.989792 234.049606,215.121780 
	C220.672348,215.830399 211.387711,225.008179 210.779480,238.396927 
	C210.493652,244.688477 210.730499,251.003769 210.730499,257.771027 
	C199.566116,257.771027 188.766525,258.405182 178.118378,257.413361 
	C174.582184,257.083984 170.493011,253.203949 168.277237,249.870132 
	C159.836044,237.169525 158.615524,222.634827 160.673233,208.083740 
	C161.764191,200.369125 164.781723,192.757919 167.968460,185.559982 
	C170.721802,179.341080 176.249664,176.730240 183.446304,176.822815 
	C205.597214,177.107758 227.754120,176.926651 249.908707,176.926636 
	C251.711945,176.926636 253.515182,176.926636 255.588226,176.926636 
	C255.588226,175.269455 255.588226,174.024155 255.588226,172.281372 
	C242.282303,172.281372 229.024399,172.281372 215.367996,172.281372 
	C215.367996,161.365402 214.700317,150.870941 215.720901,140.543320 
	C216.090866,136.799622 219.839218,132.559601 223.187088,130.097626 
	C232.831573,123.005249 244.360962,121.677307 255.965775,121.680412 
	C267.229706,121.683426 278.184784,123.359688 287.987701,129.546432 
	C293.618225,133.099899 296.522736,137.834061 296.394623,144.824356 
	C296.095551,161.143311 296.347778,177.471649 296.283936,193.795822 
	C296.229492,207.708221 288.874878,215.022644 275.012451,215.065552 
	C264.185242,215.099075 253.357819,215.072952 242.037323,215.073364 
M239.575470,149.335876 
	C238.454697,144.462494 235.656158,141.871552 232.417358,143.463257 
	C230.532776,144.389435 228.210297,147.082535 228.354355,148.788986 
	C228.524811,150.807953 230.786484,153.554810 232.777420,154.309830 
	C235.999542,155.531799 238.437958,153.440430 239.575470,149.335876 
z"/>
<path fill="#353F49" opacity="1.000000" stroke="none" 
	d="
M194.027725,404.000000 
	C194.027725,394.707458 194.027725,385.914917 194.027725,376.114990 
	C206.780090,376.667175 219.137695,376.324829 231.224960,377.969452 
	C243.617905,379.655609 249.860199,388.271423 250.023026,400.644745 
	C250.202301,414.267792 243.485657,424.013947 231.434830,426.742523 
	C226.305588,427.903870 220.936707,428.006836 215.168015,428.647278 
	C215.168015,436.634521 215.168015,444.881042 215.168015,453.480835 
	C207.977570,453.480835 201.266632,453.480835 194.027725,453.480835 
	C194.027725,437.058014 194.027725,420.779022 194.027725,404.000000 
M227.392685,396.236115 
	C223.929886,392.721832 219.672272,393.277832 215.349731,393.574249 
	C215.349731,399.587830 215.349731,405.273438 215.349731,410.933868 
	C226.540512,411.307617 230.933014,406.204895 227.392685,396.236115 
z"/>
<path fill="#36414B" opacity="1.000000" stroke="none" 
	d="
M292.256165,400.191620 
	C295.518158,393.229858 298.743561,386.664825 301.647125,379.960419 
	C302.735046,377.448395 304.070953,376.433746 306.847290,376.528229 
	C312.797180,376.730774 318.758789,376.590332 325.406921,376.590332 
	C324.599884,378.451630 324.137451,379.770996 323.483521,380.987366 
	C316.636963,393.722931 309.638733,406.379242 302.985809,419.214722 
	C301.529327,422.024689 300.702728,425.434235 300.576080,428.607178 
	C300.245972,436.876953 300.465057,445.168701 300.465057,453.629333 
	C293.254761,453.629333 286.662903,453.629333 279.417328,453.629333 
	C279.417328,445.986542 279.777283,438.517273 279.279480,431.105621 
	C278.990692,426.805939 278.039215,422.244507 276.144165,418.415405 
	C270.028290,406.057648 263.333862,393.986267 256.870758,381.800110 
	C256.107269,380.360535 255.395325,378.893585 254.244614,376.619476 
	C261.677521,376.619476 268.439331,376.469666 275.181000,376.770935 
	C276.270874,376.819641 277.617889,378.706238 278.255890,380.028137 
	C282.079132,387.949554 285.729767,395.954315 289.797729,404.704285 
	C290.767029,402.941681 291.429321,401.737305 292.256165,400.191620 
z"/>
<path fill="#FFFAF2" opacity="1.000000" stroke="none" 
	d="
M278.686646,280.303650 
	C282.119385,281.391418 284.154724,283.568634 283.292603,286.693878 
	C282.769440,288.590424 280.815552,290.824799 279.015747,291.413544 
	C277.472687,291.918335 274.680115,290.833984 273.411591,289.516846 
	C270.009338,285.984192 272.503204,281.504974 278.686646,280.303650 
z"/>
<path fill="#F2F6FA" opacity="1.000000" stroke="none" 
	d="
M239.485321,149.687988 
	C238.437958,153.440430 235.999542,155.531799 232.777420,154.309830 
	C230.786484,153.554810 228.524811,150.807953 228.354355,148.788986 
	C228.210297,147.082535 230.532776,144.389435 232.417358,143.463257 
	C235.656158,141.871552 238.454697,144.462494 239.485321,149.687988 
z"/>
<path fill="#E2E3E3" opacity="1.000000" stroke="none" 
	d="
M227.621674,396.558868 
	C230.933014,406.204895 226.540512,411.307617 215.349731,410.933868 
	C215.349731,405.273438 215.349731,399.587830 215.349731,393.574249 
	C219.672272,393.277832 223.929886,392.721832 227.621674,396.558868 
z"/>
</svg>