 <svg  version="1.0" xmlns="http://www.w3.org/2000/svg"  width="225.000000pt" height="225.000000pt" viewBox="0 0 225.000000 225.000000"  preserveAspectRatio="xMidYMid meet">  <g transform="translate(0.000000,225.000000) scale(0.050000,-0.050000)" fill="#0433ff" stroke="none"> <path d="M0 2250 l0 -2250 2250 0 2250 0 0 2250 0 2250 -2250 0 -2250 0 0 -2250z m2402 1260 c50 -17 136 -71 192 -120 l102 -90 302 0 302 0 0 -302 0 -302 90 -102 c197 -225 196 -472 -2 -692 l-88 -98 0 -302 0 -302 -306 0 -306 0 -69 -72 c-207 -217 -495 -221 -725 -10 l-88 82 -303 0 -303 0 0 302 0 302 -88 98 c-198 220 -199 467 -2 692 l90 102 0 302 0 302 302 0 302 0 99 88 c157 142 322 182 499 122z"/> <path d="M2212 3156 l-36 -233 -77 -13 c-42 -7 -125 -42 -185 -78 l-108 -66 -87 51 -86 51 51 -86 52 -87 -56 -89 c-31 -49 -67 -132 -80 -186 -23 -97 -25 -98 -117 -112 -51 -7 -156 -24 -233 -37 l-140 -23 190 -26 c282 -38 270 -32 298 -141 14 -54 49 -136 79 -184 l55 -86 -49 -87 -48 -88 85 44 85 43 112 -60 c62 -33 146 -66 186 -73 l73 -14 37 -233 36 -233 25 170 c47 317 35 290 144 318 54 13 137 49 185 79 l86 55 87 -49 88 -48 -44 85 -43 85 60 112 c33 62 66 146 73 187 13 70 19 75 107 88 51 7 156 24 233 37 l140 23 -190 26 c-283 38 -273 33 -299 136 -13 50 -27 87 -32 82 -4 -5 1 -39 11 -77 11 -38 20 -74 20 -80 0 -8 -252 25 -297 39 -6 2 132 259 150 281 4 4 22 -9 39 -30 30 -36 30 -35 2 13 -29 48 -27 58 21 139 l52 87 -89 -52 -88 -52 -70 49 c-38 27 -121 63 -184 81 l-113 32 -22 132 c-11 73 -28 177 -36 232 -16 99 -16 99 -53 -134z m-61 -391 c-19 -176 -18 -176 -178 -87 l-137 77 64 45 c55 39 194 95 247 99 10 0 11 -60 4 -134z m347 92 c26 -10 74 -37 106 -60 l60 -42 -137 -77 c-156 -87 -156 -87 -177 98 l-14 126 57 -14 c31 -8 78 -22 105 -31z m-498 -282 c157 -108 276 -266 233 -308 -60 -61 -258 133 -447 440 -16 25 7 11 214 -132z m712 129 c-165 -268 -257 -374 -361 -416 l-109 -44 17 43 c63 158 79 176 262 303 192 132 209 142 191 114z m-823 -326 c-5 -7 -60 -20 -122 -27 -62 -8 -126 -20 -142 -26 -53 -20 23 215 101 311 21 26 182 -227 163 -258z m351 -144 c0 -105 -75 -203 -237 -311 -229 -153 -233 -155 -212 -121 118 195 259 369 324 400 70 32 125 46 125 32z m173 -52 c53 -26 184 -195 296 -380 21 -35 12 -30 -207 122 -130 89 -177 135 -205 198 -59 132 -41 141 116 60z m-528 -55 c9 -6 -17 -72 -57 -148 -40 -76 -81 -133 -91 -127 -26 16 -89 147 -114 235 l-21 77 134 -14 c74 -8 141 -18 149 -23z m1004 -12 c-24 -79 -70 -184 -102 -233 l-31 -47 -77 137 c-84 150 -83 161 21 173 182 22 204 18 189 -30z m-738 -382 l14 -137 -47 14 c-82 25 -186 71 -236 103 l-47 31 137 77 c161 90 160 90 179 -88z m497 4 c-16 -26 -147 -89 -235 -114 l-77 -21 14 134 c19 178 13 175 171 92 76 -40 133 -81 127 -91z"/> </g> </svg> 